<?xml version="1.0" encoding="utf-8"?>
<!-- Generator: Adobe Illustrator 16.0.0, SVG Export Plug-In . SVG Version: 6.00 Build 0)  -->
<!DOCTYPE svg PUBLIC "-//W3C//DTD SVG 1.1//EN" "http://www.w3.org/Graphics/SVG/1.1/DTD/svg11.dtd">
<svg version="1.1" id="Layer_1" xmlns="http://www.w3.org/2000/svg" xmlns:xlink="http://www.w3.org/1999/xlink" x="0px" y="0px"
	 width="120px" height="120px" viewBox="0 0 120 120" enable-background="new 0 0 120 120" xml:space="preserve">
<g>
	<path fill="#2D3C51" d="M120,108c0,6.6-5.4,12-12,12H12c-6.6,0-12-5.4-12-12V12C0,5.4,5.4,0,12,0h96c6.6,0,12,5.4,12,12V108z"/>
</g>

 <g>
  <title>Layer 1</title>
  <path fill="#FFFFFF" d="m22.5,16.3c20,19.7 33.59999,32.49999 65.60001,32.49999l0,-7.5l15.6,20.80002l-15.6,18.5l0,-8.70004c0,-0.1 -57.30001,-15.19998 -65.60001,-55.59999l0,0.00001z" id="svg_10"/>
  <path fill="#A1ACBA" d="m18.5,104.29999c17.89999,-17.60001 34.09999,-30 64.89999,-29.60001l0,6.7l11.9,-18.09998l-11.5,-14.10001l0,7.80002c0.1,0.20001 -51.69999,6.20001 -65.29999,47.29999z" id="svg_11"/>
 </g>
</svg>
