<?xml version="1.0" encoding="utf-8"?>
<!-- Generator: Adobe Illustrator 16.0.0, SVG Export Plug-In . SVG Version: 6.00 Build 0)  -->
<!DOCTYPE svg PUBLIC "-//W3C//DTD SVG 1.1//EN" "http://www.w3.org/Graphics/SVG/1.1/DTD/svg11.dtd">
<svg version="1.1" id="Layer_1" xmlns="http://www.w3.org/2000/svg" xmlns:xlink="http://www.w3.org/1999/xlink" x="0px" y="0px"
	 width="120px" height="120px" viewBox="0 0 120 120" enable-background="new 0 0 120 120" xml:space="preserve">
<g>
	<path fill="#9895EE" d="M120,108c0,6.6-5.4,12-12,12H12c-6.6,0-12-5.4-12-12V12C0,5.4,5.4,0,12,0h96c6.6,0,12,5.4,12,12V108z"/>
</g>
<path fill="#FFFFFF" d="M23.873,24h72c2.209,0,4,1.791,4,4v64c0,2.209-1.791,3.999-4,3.999h-72c-2.209,0-4-1.79-4-3.999V28
	C19.873,25.792,21.664,24,23.873,24z"/>
<g>
	<path fill="#706EC1" d="M47.371,40h39v8h-39V40z M47.371,56h39v8h-39V56z M47.371,72h39v8h-39V72z"/>
</g>
<g>
	<path fill="#8A87E7" d="M37.367,39.996c2.204,0,3.99,1.793,3.99,4.004c0,2.212-1.786,4.005-3.99,4.005
		c-2.204,0-3.991-1.793-3.991-4.005C33.376,41.789,35.163,39.996,37.367,39.996z M37.367,55.996c2.204,0,3.99,1.793,3.99,4.005
		c0,2.211-1.786,4.004-3.99,4.004c-2.204,0-3.991-1.793-3.991-4.004C33.376,57.789,35.163,55.996,37.367,55.996z M37.367,71.996
		c2.204,0,3.99,1.793,3.99,4.005c0,2.211-1.786,4.004-3.99,4.004c-2.204,0-3.991-1.793-3.991-4.004
		C33.376,73.789,35.163,71.996,37.367,71.996z"/>
</g>
</svg>
