<?xml version="1.0" encoding="utf-8"?>
<!-- Generator: Adobe Illustrator 16.0.0, SVG Export Plug-In . SVG Version: 6.00 Build 0)  -->
<!DOCTYPE svg PUBLIC "-//W3C//DTD SVG 1.1//EN" "http://www.w3.org/Graphics/SVG/1.1/DTD/svg11.dtd">
<svg version="1.1" id="Layer_2" xmlns="http://www.w3.org/2000/svg" xmlns:xlink="http://www.w3.org/1999/xlink" x="0px" y="0px"
	 width="120px" height="120px" viewBox="0 0 120 120" enable-background="new 0 0 120 120" xml:space="preserve">
<g>
	<path fill="#FF9D59" d="M120,108c0,6.6-5.4,12-12,12H12c-6.6,0-12-5.4-12-12V12C0,5.4,5.4,0,12,0h96c6.6,0,12,5.4,12,12V108z"/>
</g>
<g>
	<path fill="#FFFFFF" d="M59.288,24C79.16,24,95.27,40.108,95.27,59.979c0,19.871-16.109,35.979-35.981,35.979
		c-19.87,0-35.978-16.108-35.978-35.979C23.311,40.108,39.418,24,59.288,24z"/>
</g>
<g>
	<path fill="#E37739" d="M73.25,73.941c1.65-1.5,1.287-3.779-0.212-5.428L62.895,59.75l-0.021-18.366
		c-0.076-2.023-1.388-3.354-3.487-3.429c-2.173-0.076-3.598,1.18-3.671,3.429l0.017,19.04c-0.074,1.201,0.45,2.475,1.425,3.375
		l10.389,9.418C69.045,74.568,71.752,75.291,73.25,73.941z"/>
</g>
</svg>
