<?xml version="1.0" encoding="utf-8"?>
<!-- Generator: Adobe Illustrator 16.0.0, SVG Export Plug-In . SVG Version: 6.00 Build 0)  -->
<!DOCTYPE svg PUBLIC "-//W3C//DTD SVG 1.1//EN" "http://www.w3.org/Graphics/SVG/1.1/DTD/svg11.dtd">
<svg version="1.1" id="Layer_1" xmlns="http://www.w3.org/2000/svg" xmlns:xlink="http://www.w3.org/1999/xlink" x="0px" y="0px"
	 width="120px" height="120px" viewBox="0 0 120 120" enable-background="new 0 0 120 120" xml:space="preserve">
<g>
	<path fill="#4BBF75" d="M120,108c0,6.6-5.4,12-12,12H12c-6.6,0-12-5.4-12-12V12C0,5.4,5.4,0,12,0h96c6.6,0,12,5.4,12,12V108z"/>
</g>
<path fill="#FFFFFF" d="M23.873,24h72c2.209,0,4,1.791,4,4v64c0,2.209-1.791,3.999-4,3.999h-72c-2.209,0-4-1.79-4-3.999V28
	C19.873,25.792,21.664,24,23.873,24z"/>
<polygon fill="#41A666" points="31.859,42 31.859,36 53.875,36 53.875,42 45.867,42 45.867,55.984 39.867,55.984 39.867,42 "/>
<rect x="31.896" y="78" fill="#41A666" width="23.985" height="5.984"/>
<rect x="31.896" y="64" fill="#41A666" width="23.985" height="5.984"/>
<rect x="63.859" y="50.025" fill="#41A666" width="24.016" height="5.959"/>
<rect x="63.859" y="36" fill="#41A666" width="24.016" height="5.959"/>
<path fill="#41A666" d="M63.875,64h23.979v19.984H63.875V64z M80.367,68.654l-4.729,10.472l-3.953-4.272l-4.461,4.85h-1.371v2.305
	h20.016v-2.305h-0.479L80.367,68.654z M68.836,66c-1.668,0-3.021,1.354-3.021,3.021s1.354,3.021,3.021,3.021
	c1.669,0,3.021-1.353,3.021-3.021S70.505,66,68.836,66z"/>
</svg>
