<?xml version="1.0" encoding="utf-8"?>
<!-- Generator: Adobe Illustrator 16.0.0, SVG Export Plug-In . SVG Version: 6.00 Build 0)  -->
<!DOCTYPE svg PUBLIC "-//W3C//DTD SVG 1.1//EN" "http://www.w3.org/Graphics/SVG/1.1/DTD/svg11.dtd">
<svg version="1.1" id="Layer_1" xmlns="http://www.w3.org/2000/svg" xmlns:xlink="http://www.w3.org/1999/xlink" x="0px" y="0px"
	 width="120px" height="120px" viewBox="0 0 120 120" enable-background="new 0 0 120 120" xml:space="preserve">
<g>
	<path fill="#6098e1" d="M120,108c0,6.6-5.4,12-12,12H12c-6.6,0-12-5.4-12-12V12C0,5.4,5.4,0,12,0h96c6.6,0,12,5.4,12,12V108z"/>
</g>

<g transform="translate(20,20) scale(0.2,0.2)">
	<g>
		<g>
			<linearGradient id="SVGID_1_" gradientUnits="userSpaceOnUse" x1="199.3008" y1="297.3896" x2="199.3008" y2="13.0776">
				<stop  offset="0" style="stop-color:#CDCDD1"/>
				<stop  offset="0.0089" style="stop-color:#CECED2"/>
				<stop  offset="0.3957" style="stop-color:#E9E9EB"/>
				<stop  offset="0.7386" style="stop-color:#F9F9FA"/>
				<stop  offset="1" style="stop-color:#FFFFFF"/>
			</linearGradient>
			<path fill="url(#SVGID_1_)" d="M199.092,13.077C135.447,13.179,83.92,64.874,84.029,128.538
				c0.102,63.664,115.559,168.852,115.559,168.852s115.102-105.57,114.984-169.234C314.467,64.499,262.76,12.968,199.092,13.077z"/>
		</g>
		<g>
			
				<radialGradient id="SVGID_2_" cx="199.6318" cy="101.8789" r="111.7803" gradientTransform="matrix(1 0 0 1.0132 0 -1.3438)" gradientUnits="userSpaceOnUse">
				<stop  offset="0" style="stop-color:#47B7EE"/>
				<stop  offset="1" style="stop-color:#25519B"/>
			</radialGradient>
			<path fill="url(#SVGID_2_)" d="M286.146,126.71c0,47.531-38.535,86.055-86.066,86.055c-47.527,0-86.059-38.523-86.059-86.055
				c0-47.539,38.531-86.07,86.059-86.07C247.611,40.64,286.146,79.171,286.146,126.71z"/>
			<g>
				<g opacity="0.5">
					<path d="M246.686,179.483c-0.207,0-0.402-0.016-0.57-0.055l-3.113-0.703c-1.016-0.227-2.168-1.195-2.516-2.133
						c-0.391-1.031-1.156-2.688-1.715-3.695l-0.289-0.516c-0.539-0.969-1.082-2.672-1.199-3.781l-0.25-2.336
						c-0.129-1.141-0.383-2.75-0.57-3.594c-0.18-0.758-0.086-1.891,0.207-2.469c0.336-0.68,0.547-2.188,0.457-3.367l-0.398-5.773
						c-0.094-1.188-0.698-2.789-1.229-3.594c-0.477-0.703-0.999-2.227-0.999-3.312v-0.68c0-1.219-0.634-2.844-1.567-3.633
						l-2.993-2.499c-0.914-0.773-2.582-1.344-3.785-1.344h-5.074c-1.188,0-2.891,0.297-3.805,0.742
						c-0.449,0.219-1.148,0.312-1.871,0.312c-0.555,0-1.098-0.086-1.527-0.234l-0.891-0.289c-1.035-0.328-2.516-1.293-3.242-2.105
						l-3.906-4.361c-0.766-0.844-1.688-1.985-2.062-2.548c-0.344-0.516-0.496-1.852-0.336-2.898l0.984-6.509
						c0.164-1.055,1.004-2.516,1.832-3.188l0.473-0.383c0.891-0.727,2.141-1.891,2.785-2.602c0.637-0.703,1.762-1.992,2.5-2.867
						l1.05-1.211c0.777-0.914,1.437-2.641,1.437-3.844v-2.766c0-0.992,0.744-2.249,1.736-2.249h4.613c1.125,0,2.914,0.48,4,0.785
						l2.469,0.821c1.113,0.32,2.863,0.681,3.895,0.743c0.945,0.062,2.375,0.771,3.137,1.528l2.137,2.162
						c0.852,0.844,2.492,1.694,3.676,1.874l3.055,0.511c0.195,0.023,0.422,0.049,0.648,0.049c1.137,0,2.496-0.382,3.309-0.937
						l0.957-0.655c0.41-0.289,0.891-0.445,1.301-0.445c0.383,0,0.676,0.125,0.836,0.352c0.465,0.664,1.477,1.586,2.281,2.039
						c0.273,0.172,0.648,0.266,1.043,0.266c0.781,0,1.613-0.32,2.211-0.859l0.816-0.711c0.926-0.812,1.656-2.227,1.656-3.195
						c0-1-0.859-2.273-1.941-2.898l-0.781-0.461c-0.895-0.508-1.492-1.515-1.328-2.476c0.176-0.938,1.16-1.492,2.16-1.492h2.766
						c1.297,0,2.352-1.242,2.352-2.477c0-1.133-0.27-2.634-0.621-3.259c-0.332-0.617-1.465-1.59-2.543-2.137l-0.898-0.475
						c-0.531-0.266-1.238-0.429-1.977-0.429c-0.75,0-1.445,0.133-1.977,0.398c-1.086,0.547-2.133,1.974-2.324,3.177l-0.039,0.209
						c-0.168,1.07-0.781,2.726-1.32,3.585c-0.449,0.703-1.5,1.234-2.457,1.234c-0.109,0-0.242-0.001-0.363-0.024l-1.77-0.281
						c-1.043-0.156-2.285-1.102-2.727-2.047l-0.473-1.023c-0.527-1.125-1.941-2.086-3.184-2.133l-7.758-0.336
						c-1.195,0-2.836,0.539-3.754,1.219l-3.137,2.352c-0.266,0.211-0.57,0.32-0.879,0.32c-0.52,0-0.977-0.32-1.223-0.852
						l-1.965-4.305c-0.434-0.961-0.402-2.555,0.066-3.508l0.906-1.828c0.488-0.961,1.648-2.32,2.535-2.953l3.762-2.672
						c0.938-0.656,2.402-1.727,3.262-2.359c0.605-0.453,1.66-0.75,2.625-0.75c0.273,0,0.523,0.023,0.738,0.07l2.512,0.531
						c0.395,0.086,0.836,0.133,1.258,0.133c0.852,0,1.543-0.164,1.926-0.453c0.496-0.367,1.578-1.094,2.395-1.594
						c0.852-0.516,2.223-1.578,3.066-2.367l4.359-4.078c0.5-0.477,1.352-0.781,2.168-0.781c0.363,0,0.691,0.055,0.98,0.164
						l2.594,1.016c1.043,0.422,2.523,1.383,3.301,2.164l5.605,5.609c0.805,0.797,2.031,2.18,2.727,3.078l3.215,4.109
						c0.645,0.828,1.039,2.422,0.844,3.461l-0.402,2.133c-0.191,1.062-0.992,2.625-1.73,3.406l-0.141,0.148
						c-0.434,0.461-0.645,1.047-0.578,1.625c0.051,0.602,0.383,1.117,0.91,1.477l0.719,0.492c0.867,0.594,1.594,1.984,1.594,3.031
						c0,1.148,0.809,1.984,1.922,1.984c0.148,0,0.301-0.016,0.445-0.047l4-0.805c0.113-0.016,0.227-0.031,0.336-0.031
						c0.793,0,1.367,0.602,1.367,1.43c0,1.18,0.355,3.023,0.789,4.117l0.57,1.406c0.41,1.039,0.898,2.805,1.086,3.914l0.113,0.656
						c0.172,1.133-0.191,2.219-0.656,2.539c-0.367,0.266-1.184,0.43-2.008,0.43c-0.316,0-0.629-0.023-0.922-0.07l-2.602-0.461
						c-0.207-0.023-0.379-0.039-0.52-0.039c-0.516,0-0.691,0.203-0.75,0.367c-0.109,0.312,0.109,0.672,0.652,1.094l0.871,0.68
						c0.82,0.641,1.414,2.008,1.305,2.984c-0.117,1.023-0.805,2.586-1.496,3.43l-0.582,0.719c-0.691,0.836-2.113,1.93-3.105,2.383
						l-1.762,0.812c-0.27,0.117-0.59,0.188-0.93,0.188c-0.77,0-1.516-0.328-1.953-0.859l-9.723-11.875
						c-0.531-0.641-0.688-0.703-0.832-0.703c-0.094,0-0.219,0.07-0.266,0.148c-0.094,0.164-0.07,0.367,0.316,1.086l5.297,9.82
						c0.566,1.039,1.746,2.484,2.645,3.258l2.828,2.375c0.867,0.734,2.008,1.977,2.574,2.789c0.535,0.773,0.988,2.086,0.988,2.875
						c0,0.797-0.484,2.227-1.07,3.141l-0.082,0.133c-0.613,0.961-1.715,2.414-2.469,3.258l-3.223,3.594
						c-0.805,0.883-1.5,2.586-1.543,3.797l-0.309,8.305c-0.035,1.141-0.438,2.195-0.758,2.438c-0.461,0.328-1.523,1.211-2.398,1.969
						l-0.809,0.719c-0.898,0.797-1.699,2.43-1.777,3.625l-0.191,3.016c-0.074,1.07-0.754,2.633-1.469,3.414l-5.957,6.43
						C248.713,179.062,247.646,179.483,246.686,179.483z"/>
					<path d="M251.693,66.382c0.324,0,0.629,0.055,0.875,0.148l2.602,1.023c0.988,0.391,2.457,1.352,3.211,2.102l5.598,5.594
						c0.797,0.812,2.008,2.172,2.703,3.062l3.215,4.109c0.605,0.781,0.973,2.266,0.793,3.242l-0.406,2.133
						c-0.184,1.023-0.945,2.508-1.648,3.266l-0.156,0.148c-0.484,0.516-0.727,1.172-0.652,1.852c0.07,0.672,0.438,1.25,1.031,1.664
						l0.727,0.5c0.793,0.547,1.473,1.828,1.473,2.797c0,1.289,0.945,2.266,2.195,2.266c0.164,0,0.336-0.016,0.496-0.055l4.008-0.805
						c0.086-0.016,0.184-0.023,0.277-0.023c0.641,0,1.094,0.469,1.094,1.148c0,1.203,0.359,3.102,0.805,4.219l0.559,1.406
						c0.414,1.016,0.902,2.781,1.074,3.859l0.109,0.656c0.16,0.977-0.148,2-0.523,2.266c-0.273,0.188-0.965,0.375-1.855,0.375
						c-0.305,0-0.605-0.023-0.871-0.062l-2.598-0.453c-0.223-0.031-0.41-0.055-0.574-0.055c-0.715,0-0.941,0.352-1.012,0.562
						c-0.227,0.648,0.504,1.211,0.742,1.398l0.879,0.68c0.738,0.578,1.301,1.859,1.188,2.742c-0.109,0.969-0.762,2.469-1.422,3.281
						l-0.59,0.711c-0.672,0.812-2.051,1.875-3.012,2.312l-1.758,0.805c-0.234,0.117-0.523,0.172-0.812,0.172
						c-0.676,0-1.355-0.305-1.73-0.766l-9.727-11.867c-0.504-0.617-0.754-0.805-1.051-0.805c-0.203,0-0.402,0.117-0.504,0.281
						c-0.199,0.32-0.059,0.68,0.301,1.367l5.309,9.812c0.574,1.055,1.781,2.547,2.703,3.336l2.828,2.383
						c0.836,0.703,1.984,1.953,2.531,2.734c0.508,0.734,0.941,1.984,0.941,2.711c0,0.75-0.477,2.117-1.031,2.992l-0.078,0.125
						c-0.602,0.953-1.703,2.391-2.449,3.219l-3.227,3.602c-0.852,0.953-1.559,2.695-1.602,3.969l-0.305,8.305
						c-0.051,1.172-0.461,2.078-0.656,2.227c-0.453,0.328-1.543,1.219-2.402,1.992l-0.816,0.711
						c-0.965,0.859-1.789,2.539-1.875,3.828l-0.199,3.008c-0.062,1.008-0.703,2.5-1.398,3.242l-5.941,6.43
						c-0.504,0.547-1.52,0.953-2.391,0.953c-0.184,0-0.363-0.023-0.516-0.062l-3.105-0.695c-0.938-0.211-1.996-1.109-2.32-1.953
						c-0.387-1.055-1.168-2.719-1.738-3.742l-0.285-0.523c-0.508-0.93-1.047-2.609-1.164-3.664l-0.25-2.336
						c-0.121-1.148-0.379-2.781-0.578-3.625c-0.16-0.703-0.078-1.766,0.188-2.289c0.367-0.727,0.578-2.273,0.484-3.523l-0.395-5.766
						c-0.09-1.242-0.356-2.875-0.923-3.719c-0.445-0.68-0.583-2.117-0.583-3.164v-0.68c0-1.312-1.026-3-2.034-3.836l-3.163-2.37
						c-0.98-0.82-2.871-1.27-4.148-1.27h-5.074c-1.23,0-2.965,0.168-3.938,0.629c-0.398,0.188-1.055,0.204-1.738,0.204
						c-0.535,0-1.043-0.112-1.441-0.245l-0.887-0.298c-1.008-0.32-2.426-1.255-3.125-2.036l-3.918-4.366
						c-0.734-0.82-1.664-1.979-2.031-2.519c-0.266-0.414-0.461-1.665-0.289-2.704l0.984-6.509c0.152-1,0.949-2.384,1.73-3.024
						l0.461-0.375c0.914-0.734,2.184-1.914,2.828-2.641c0.629-0.68,1.754-1.969,2.508-2.867l0.919-1.211
						c0.82-0.977,1.356-2.734,1.356-4.023v-2.766c0-0.836,0.896-1.249,1.736-1.249h4.613c1.078,0,2.875,0.113,3.922,0.41
						l2.461,0.634c1.141,0.328,2.91,0.606,3.965,0.677c0.887,0.062,2.242,0.687,2.949,1.405l2.145,2.132
						c0.895,0.898,2.57,1.745,3.82,1.948l3.055,0.498c0.227,0.031,0.453,0.038,0.699,0.038c1.207,0,2.602-0.383,3.465-0.977
						l0.965-0.657c0.363-0.25,0.777-0.398,1.137-0.398c0.281,0,0.512,0.086,0.609,0.242c0.488,0.695,1.527,1.633,2.367,2.125
						c0.324,0.188,0.734,0.297,1.184,0.297c0.852,0,1.742-0.359,2.406-0.93l0.805-0.711c0.977-0.867,1.746-2.359,1.746-3.406
						c0-1.086-0.914-2.469-2.074-3.141l-0.785-0.453c-0.789-0.461-1.34-1.464-1.188-2.331c0.145-0.805,1.004-1.402,1.883-1.402
						h2.766c1.457,0,2.633-1.223,2.633-2.613c0-1.031-0.246-2.589-0.645-3.315c-0.426-0.75-1.691-1.728-2.684-2.22l-0.895-0.465
						c-0.574-0.281-1.316-0.452-2.098-0.452c-0.789,0-1.531,0.161-2.098,0.442c-1.176,0.586-2.273,2.077-2.477,3.382l-0.027,0.194
						c-0.18,1.055-0.77,2.663-1.297,3.499c-0.398,0.633-1.348,1.102-2.219,1.102c-0.102,0-0.203-0.008-0.312-0.023l-1.785-0.273
						c-0.949-0.156-2.105-1.023-2.504-1.891l-0.477-1.031c-0.574-1.227-2.074-2.093-3.434-2.155L231.252,90c-0.062,0-0.117,0-0.18,0
						c-1.262,0-2.949,0.398-3.918,1.117l-3.133,2.288c-0.223,0.172-0.473,0.223-0.719,0.223c-0.414,0-0.77-0.268-0.965-0.705
						l-1.969-4.313c-0.41-0.891-0.379-2.402,0.059-3.277l0.91-1.815c0.465-0.945,1.586-2.251,2.445-2.86l3.766-2.672
						c0.938-0.664,2.402-1.728,3.258-2.368c0.559-0.414,1.57-0.695,2.465-0.695c0.246,0,0.484,0.023,0.68,0.07l2.52,0.523
						c0.414,0.094,0.867,0.133,1.309,0.133c0.434,0,1.492-0.047,2.082-0.492c0.508-0.367,1.574-1.086,2.395-1.586
						c0.848-0.516,2.25-1.602,3.102-2.398l0.191-0.172c0.832-0.781,2.195-2.055,3.027-2.844l1.133-1.062
						C250.158,66.663,250.943,66.382,251.693,66.382 M251.693,65.827c-0.859,0-1.789,0.312-2.367,0.859l-1.125,1.062
						c-0.84,0.789-2.199,2.07-3.035,2.844l-0.18,0.172c-0.844,0.773-2.195,1.828-3.023,2.336c-0.828,0.5-1.922,1.234-2.426,1.617
						c-0.332,0.242-1.016,0.383-1.758,0.383c-0.398,0-0.812-0.039-1.195-0.125l-2.512-0.523c-0.246-0.055-0.512-0.078-0.801-0.078
						c-0.988,0-2.125,0.305-2.793,0.797c-0.859,0.633-2.316,1.703-3.246,2.359l-3.77,2.672c-0.93,0.664-2.109,2.047-2.617,3.062
						l-0.91,1.828c-0.52,1.008-0.543,2.703-0.066,3.734l1.961,4.305c0.301,0.664,0.863,1.016,1.473,1.016
						c0.344,0,0.715-0.117,1.051-0.375l3.141-2.352c0.867-0.656,2.441-1.164,3.578-1.164c0.059,0,0.105,0,0.148,0.008l7.598,0.336
						c1.145,0.039,2.465,0.938,2.949,1.961l0.473,1.031c0.473,1.039,1.797,2.023,2.926,2.203l1.781,0.281
						c0.129,0.023,0.273,0.031,0.398,0.031c1.047,0,2.184-0.562,2.684-1.359c0.57-0.906,1.199-2.578,1.375-3.703l0.035-0.203
						c0.18-1.125,1.156-2.469,2.172-2.977c0.512-0.25,1.172-0.383,1.852-0.383c0.668,0,1.34,0.133,1.859,0.383l0.895,0.453
						c1.023,0.508,2.113,1.398,2.434,1.969s0.57,1.786,0.57,2.872c0,1.078-0.93,1.84-2.07,1.84h-2.766
						c-1.141,0-2.238,1.004-2.426,2.09c-0.195,1.078,0.449,2.485,1.449,3.056l0.789,0.485c0.996,0.578,1.801,1.79,1.801,2.681
						c0,0.883-0.703,2.242-1.559,2.992l-0.816,0.715c-0.566,0.508-1.355,0.791-2.031,0.791c-0.336,0-0.656-0.069-0.902-0.218
						c-0.77-0.438-1.758-1.32-2.195-1.961c-0.219-0.32-0.613-0.468-1.062-0.468c-0.461,0-0.984,0.156-1.461,0.492l-0.957,0.648
						c-0.777,0.539-2.086,0.891-3.148,0.891c-0.211,0-0.418-0.016-0.609-0.039l-3.059-0.508c-1.125-0.164-2.711-0.984-3.516-1.781
						l-2.145-2.148c-0.801-0.812-2.293-1.523-3.297-1.586c-1.023-0.062-2.754-0.375-3.855-0.68l-2.465-0.8
						C223.822,99.34,221.99,99,220.85,99h-4.613c-1.141,0-1.736,1.108-1.736,2.249v2.766c0,1.148-0.778,2.797-1.509,3.664
						l-1.108,1.211c-0.734,0.883-1.897,2.156-2.53,2.859c-0.633,0.695-1.892,1.852-2.782,2.578l-0.483,0.383
						c-0.887,0.719-1.76,2.234-1.928,3.367l-0.99,6.492c-0.18,1.133-0.01,2.523,0.373,3.102c0.383,0.57,1.32,1.734,2.086,2.586
						l3.909,4.352c0.762,0.852,2.285,1.836,3.363,2.18l0.898,0.281c0.469,0.156,1.035,0.227,1.605,0.227
						c0.738,0,1.477-0.202,1.98-0.437c0.891-0.438,2.555-0.859,3.695-0.859h5.074c1.141,0,2.789,0.688,3.668,1.414l3.075,2.608
						c0.867,0.734,1.603,2.312,1.603,3.453v0.68c0,1.148,0.401,2.703,0.901,3.469c0.512,0.766,0.981,2.312,1.056,3.453l0.397,5.773
						c0.082,1.141-0.107,2.602-0.428,3.227c-0.328,0.641-0.428,1.836-0.236,2.656c0.188,0.828,0.445,2.43,0.57,3.562l0.245,2.336
						c0.121,1.141,0.676,2.883,1.234,3.883l0.293,0.516c0.539,1,1.312,2.656,1.695,3.664c0.375,1.023,1.605,2.055,2.715,2.305
						l3.102,0.695c0.203,0.055,0.418,0.07,0.641,0.07c1.004,0,2.168-0.445,2.797-1.133l5.945-6.414
						c0.773-0.836,1.473-2.453,1.551-3.586l0.199-3.008c0.062-1.141,0.828-2.695,1.68-3.453l0.812-0.711
						c0.859-0.766,1.918-1.641,2.363-1.961c0.441-0.312,0.84-1.516,0.883-2.648l0.309-8.305c0.039-1.148,0.699-2.773,1.461-3.617
						l3.223-3.602c0.762-0.852,1.891-2.328,2.508-3.297l0.082-0.125c0.605-0.961,1.109-2.445,1.109-3.289s-0.465-2.203-1.035-3.031
						c-0.566-0.82-1.758-2.102-2.633-2.836l-2.824-2.383c-0.871-0.742-2.027-2.172-2.574-3.172l-5.305-9.828
						c-0.293-0.547-0.383-0.82-0.289-0.82c0.078,0,0.281,0.203,0.621,0.602l9.727,11.867c0.492,0.617,1.34,0.961,2.16,0.961
						c0.363,0,0.711-0.062,1.043-0.211l1.754-0.812c1.039-0.469,2.492-1.586,3.211-2.461l0.598-0.719
						c0.719-0.883,1.418-2.484,1.547-3.57c0.129-1.078-0.512-2.523-1.41-3.227l-0.879-0.688c-0.742-0.586-0.742-0.969-0.066-0.969
						c0.137,0,0.297,0.016,0.477,0.047l2.598,0.445c0.316,0.055,0.629,0.086,0.969,0.086c0.867,0,1.73-0.18,2.168-0.484
						c0.602-0.422,0.949-1.672,0.762-2.805l-0.109-0.664c-0.184-1.125-0.68-2.922-1.105-3.977l-0.562-1.406
						c-0.422-1.055-0.77-2.867-0.77-4.008l0,0c0-1.008-0.711-1.711-1.645-1.711c-0.125,0-0.258,0.016-0.398,0.047l-3.984,0.797
						c-0.145,0.031-0.273,0.039-0.398,0.039c-0.938,0-1.645-0.703-1.645-1.703l0,0c0-1.148-0.77-2.609-1.711-3.258l-0.73-0.492
						c-0.934-0.648-1.066-1.859-0.281-2.688l0.141-0.133c0.789-0.836,1.598-2.43,1.801-3.547l0.406-2.148
						c0.207-1.125-0.195-2.781-0.906-3.672l-3.211-4.125c-0.699-0.891-1.941-2.289-2.742-3.102l-5.609-5.602
						c-0.805-0.805-2.328-1.805-3.398-2.219l-2.59-1.023C252.455,65.89,252.088,65.827,251.693,65.827L251.693,65.827z"/>
				</g>
				<g>
					<g>
						<linearGradient id="SVGID_3_" gradientUnits="userSpaceOnUse" x1="242.6895" y1="177.4834" x2="242.6895" y2="64.1089">
							<stop  offset="0" style="stop-color:#DDDDDD"/>
							<stop  offset="0.2325" style="stop-color:#E9E9E9"/>
							<stop  offset="0.6677" style="stop-color:#F9F9F9"/>
							<stop  offset="1" style="stop-color:#FFFFFF"/>
						</linearGradient>
						<path fill="url(#SVGID_3_)" d="M246.686,177.483c-0.207,0-0.402-0.016-0.57-0.055l-3.113-0.703
							c-1.016-0.227-2.168-1.195-2.516-2.133c-0.391-1.031-1.156-2.688-1.715-3.695l-0.289-0.516
							c-0.539-0.969-1.082-2.672-1.199-3.781l-0.25-2.336c-0.129-1.141-0.383-2.75-0.57-3.594c-0.18-0.758-0.086-1.891,0.207-2.469
							c0.336-0.68,0.547-2.188,0.457-3.367l-0.398-5.773c-0.094-1.188-0.698-2.789-1.229-3.594
							c-0.477-0.703-0.999-2.227-0.999-3.312v-0.68c0-1.219-0.634-2.844-1.567-3.633l-2.993-2.499
							c-0.914-0.773-2.582-1.344-3.785-1.344h-5.074c-1.188,0-2.891,0.297-3.805,0.742c-0.449,0.219-1.148,0.312-1.871,0.312
							c-0.555,0-1.098-0.086-1.527-0.234l-0.891-0.289c-1.035-0.328-2.516-1.293-3.242-2.105l-3.906-4.361
							c-0.766-0.844-1.688-1.985-2.062-2.548c-0.344-0.516-0.496-1.852-0.336-2.898l0.984-6.509
							c0.164-1.055,1.004-2.516,1.832-3.188l0.473-0.383c0.891-0.727,2.141-1.891,2.785-2.602c0.637-0.703,1.762-1.992,2.5-2.867
							l1.05-1.211c0.777-0.914,1.437-2.641,1.437-3.844v-2.766c0-0.992,0.744-2.249,1.736-2.249h4.613c1.125,0,2.914,0.48,4,0.785
							l2.469,0.821c1.113,0.32,2.863,0.681,3.895,0.743c0.945,0.062,2.375,0.771,3.137,1.528l2.137,2.162
							c0.852,0.844,2.492,1.694,3.676,1.874l3.055,0.511c0.195,0.023,0.422,0.049,0.648,0.049c1.137,0,2.496-0.382,3.309-0.937
							l0.957-0.655c0.41-0.289,0.891-0.445,1.301-0.445c0.383,0,0.676,0.125,0.836,0.352c0.465,0.664,1.477,1.586,2.281,2.039
							c0.273,0.172,0.648,0.266,1.043,0.266c0.781,0,1.613-0.32,2.211-0.859l0.816-0.711c0.926-0.812,1.656-2.227,1.656-3.195
							c0-1-0.859-2.273-1.941-2.898l-0.781-0.461c-0.895-0.508-1.492-1.515-1.328-2.476c0.176-0.938,1.16-1.492,2.16-1.492h2.766
							c1.297,0,2.352-1.242,2.352-2.477c0-1.133-0.27-2.634-0.621-3.259c-0.332-0.617-1.465-1.59-2.543-2.137l-0.898-0.475
							c-0.531-0.266-1.238-0.429-1.977-0.429c-0.75,0-1.445,0.133-1.977,0.398c-1.086,0.547-2.133,1.974-2.324,3.177l-0.039,0.209
							c-0.168,1.07-0.781,2.726-1.32,3.585c-0.449,0.703-1.5,1.234-2.457,1.234c-0.109,0-0.242-0.001-0.363-0.024l-1.77-0.281
							c-1.043-0.156-2.285-1.102-2.727-2.047l-0.473-1.023c-0.527-1.125-1.941-2.086-3.184-2.133l-7.758-0.336
							c-1.195,0-2.836,0.539-3.754,1.219l-3.137,2.352c-0.266,0.211-0.57,0.32-0.879,0.32c-0.52,0-0.977-0.32-1.223-0.852
							l-1.965-4.305c-0.434-0.961-0.402-2.555,0.066-3.508l0.906-1.828c0.488-0.961,1.648-2.32,2.535-2.953l3.762-2.672
							c0.938-0.656,2.402-1.727,3.262-2.359c0.605-0.453,1.66-0.75,2.625-0.75c0.273,0,0.523,0.023,0.738,0.07l2.512,0.531
							c0.395,0.086,0.836,0.133,1.258,0.133c0.852,0,1.543-0.164,1.926-0.453c0.496-0.367,1.578-1.094,2.395-1.594
							c0.852-0.516,2.223-1.578,3.066-2.367l4.359-4.078c0.5-0.477,1.352-0.781,2.168-0.781c0.363,0,0.691,0.055,0.98,0.164
							l2.594,1.016c1.043,0.422,2.523,1.383,3.301,2.164l5.605,5.609c0.805,0.797,2.031,2.18,2.727,3.078l3.215,4.109
							c0.645,0.828,1.039,2.422,0.844,3.461l-0.402,2.133c-0.191,1.062-0.992,2.625-1.73,3.406l-0.141,0.148
							c-0.434,0.461-0.645,1.047-0.578,1.625c0.051,0.602,0.383,1.117,0.91,1.477l0.719,0.492c0.867,0.594,1.594,1.984,1.594,3.031
							c0,1.148,0.809,1.984,1.922,1.984c0.148,0,0.301-0.016,0.445-0.047l4-0.805c0.113-0.016,0.227-0.031,0.336-0.031
							c0.793,0,1.367,0.602,1.367,1.43c0,1.18,0.355,3.023,0.789,4.117l0.57,1.406c0.41,1.039,0.898,2.805,1.086,3.914l0.113,0.656
							c0.172,1.133-0.191,2.219-0.656,2.539c-0.367,0.266-1.184,0.43-2.008,0.43c-0.316,0-0.629-0.023-0.922-0.07l-2.602-0.461
							c-0.207-0.023-0.379-0.039-0.52-0.039c-0.516,0-0.691,0.203-0.75,0.367c-0.109,0.312,0.109,0.672,0.652,1.094l0.871,0.68
							c0.82,0.641,1.414,2.008,1.305,2.984c-0.117,1.023-0.805,2.586-1.496,3.43l-0.582,0.719c-0.691,0.836-2.113,1.93-3.105,2.383
							l-1.762,0.812c-0.27,0.117-0.59,0.188-0.93,0.188c-0.77,0-1.516-0.328-1.953-0.859l-9.723-11.875
							c-0.531-0.641-0.688-0.703-0.832-0.703c-0.094,0-0.219,0.07-0.266,0.148c-0.094,0.164-0.07,0.367,0.316,1.086l5.297,9.82
							c0.566,1.039,1.746,2.484,2.645,3.258l2.828,2.375c0.867,0.734,2.008,1.977,2.574,2.789c0.535,0.773,0.988,2.086,0.988,2.875
							c0,0.797-0.484,2.227-1.07,3.141l-0.082,0.133c-0.613,0.961-1.715,2.414-2.469,3.258l-3.223,3.594
							c-0.805,0.883-1.5,2.586-1.543,3.797l-0.309,8.305c-0.035,1.141-0.438,2.195-0.758,2.438
							c-0.461,0.328-1.523,1.211-2.398,1.969l-0.809,0.719c-0.898,0.797-1.699,2.43-1.777,3.625l-0.191,3.016
							c-0.074,1.07-0.754,2.633-1.469,3.414l-5.957,6.43C248.713,177.062,247.646,177.483,246.686,177.483z"/>
						<linearGradient id="SVGID_4_" gradientUnits="userSpaceOnUse" x1="242.6865" y1="177.7646" x2="242.6865" y2="63.8276">
							<stop  offset="0" style="stop-color:#DDDDDD"/>
							<stop  offset="0.2325" style="stop-color:#E9E9E9"/>
							<stop  offset="0.6677" style="stop-color:#F9F9F9"/>
							<stop  offset="1" style="stop-color:#FFFFFF"/>
						</linearGradient>
						<path fill="url(#SVGID_4_)" d="M251.693,64.382c0.324,0,0.629,0.055,0.875,0.148l2.602,1.023
							c0.988,0.391,2.457,1.352,3.211,2.102l5.598,5.594c0.797,0.812,2.008,2.172,2.703,3.062l3.215,4.109
							c0.605,0.781,0.973,2.266,0.793,3.242l-0.406,2.133c-0.184,1.023-0.945,2.508-1.648,3.266l-0.156,0.148
							c-0.484,0.516-0.727,1.172-0.652,1.852c0.07,0.672,0.438,1.25,1.031,1.664l0.727,0.5c0.793,0.547,1.473,1.828,1.473,2.797
							c0,1.289,0.945,2.266,2.195,2.266c0.164,0,0.336-0.016,0.496-0.055l4.008-0.805c0.086-0.016,0.184-0.023,0.277-0.023
							c0.641,0,1.094,0.469,1.094,1.148c0,1.203,0.359,3.102,0.805,4.219l0.559,1.406c0.414,1.016,0.902,2.781,1.074,3.859
							l0.109,0.656c0.16,0.977-0.148,2-0.523,2.266c-0.273,0.188-0.965,0.375-1.855,0.375c-0.305,0-0.605-0.023-0.871-0.062
							l-2.598-0.453c-0.223-0.031-0.41-0.055-0.574-0.055c-0.715,0-0.941,0.352-1.012,0.562c-0.227,0.648,0.504,1.211,0.742,1.398
							l0.879,0.68c0.738,0.578,1.301,1.859,1.188,2.742c-0.109,0.969-0.762,2.469-1.422,3.281l-0.59,0.711
							c-0.672,0.812-2.051,1.875-3.012,2.312l-1.758,0.805c-0.234,0.117-0.523,0.172-0.812,0.172c-0.676,0-1.355-0.305-1.73-0.766
							l-9.727-11.867c-0.504-0.617-0.754-0.805-1.051-0.805c-0.203,0-0.402,0.117-0.504,0.281c-0.199,0.32-0.059,0.68,0.301,1.367
							l5.309,9.812c0.574,1.055,1.781,2.547,2.703,3.336l2.828,2.383c0.836,0.703,1.984,1.953,2.531,2.734
							c0.508,0.734,0.941,1.984,0.941,2.711c0,0.75-0.477,2.117-1.031,2.992l-0.078,0.125c-0.602,0.953-1.703,2.391-2.449,3.219
							l-3.227,3.602c-0.852,0.953-1.559,2.695-1.602,3.969l-0.305,8.305c-0.051,1.172-0.461,2.078-0.656,2.227
							c-0.453,0.328-1.543,1.219-2.402,1.992l-0.816,0.711c-0.965,0.859-1.789,2.539-1.875,3.828l-0.199,3.008
							c-0.062,1.008-0.703,2.5-1.398,3.242l-5.941,6.43c-0.504,0.547-1.52,0.953-2.391,0.953c-0.184,0-0.363-0.023-0.516-0.062
							l-3.105-0.695c-0.938-0.211-1.996-1.109-2.32-1.953c-0.387-1.055-1.168-2.719-1.738-3.742l-0.285-0.523
							c-0.508-0.93-1.047-2.609-1.164-3.664l-0.25-2.336c-0.121-1.148-0.379-2.781-0.578-3.625c-0.16-0.703-0.078-1.766,0.188-2.289
							c0.367-0.727,0.578-2.273,0.484-3.523l-0.395-5.766c-0.09-1.242-0.356-2.875-0.923-3.719c-0.445-0.68-0.583-2.117-0.583-3.164
							v-0.68c0-1.312-1.026-3-2.034-3.836l-3.163-2.37c-0.98-0.82-2.871-1.27-4.148-1.27h-5.074c-1.23,0-2.965,0.168-3.938,0.629
							c-0.398,0.188-1.055,0.204-1.738,0.204c-0.535,0-1.043-0.112-1.441-0.245l-0.887-0.298c-1.008-0.32-2.426-1.255-3.125-2.036
							l-3.918-4.366c-0.734-0.82-1.664-1.979-2.031-2.519c-0.266-0.414-0.461-1.665-0.289-2.704l0.984-6.509
							c0.152-1,0.949-2.384,1.73-3.024l0.461-0.375c0.914-0.734,2.184-1.914,2.828-2.641c0.629-0.68,1.754-1.969,2.508-2.867
							l0.919-1.211c0.82-0.977,1.356-2.734,1.356-4.023v-2.766c0-0.836,0.896-1.249,1.736-1.249h4.613
							c1.078,0,2.875,0.113,3.922,0.41l2.461,0.634c1.141,0.328,2.91,0.606,3.965,0.677c0.887,0.062,2.242,0.687,2.949,1.405
							l2.145,2.132c0.895,0.898,2.57,1.745,3.82,1.948l3.055,0.498c0.227,0.031,0.453,0.038,0.699,0.038
							c1.207,0,2.602-0.383,3.465-0.977l0.965-0.657c0.363-0.25,0.777-0.398,1.137-0.398c0.281,0,0.512,0.086,0.609,0.242
							c0.488,0.695,1.527,1.633,2.367,2.125c0.324,0.188,0.734,0.297,1.184,0.297c0.852,0,1.742-0.359,2.406-0.93l0.805-0.711
							c0.977-0.867,1.746-2.359,1.746-3.406c0-1.086-0.914-2.469-2.074-3.141l-0.785-0.453c-0.789-0.461-1.34-1.464-1.188-2.331
							c0.145-0.805,1.004-1.402,1.883-1.402h2.766c1.457,0,2.633-1.223,2.633-2.613c0-1.031-0.246-2.589-0.645-3.315
							c-0.426-0.75-1.691-1.728-2.684-2.22l-0.895-0.465c-0.574-0.281-1.316-0.452-2.098-0.452c-0.789,0-1.531,0.161-2.098,0.442
							c-1.176,0.586-2.273,2.077-2.477,3.382l-0.027,0.194c-0.18,1.055-0.77,2.663-1.297,3.499
							c-0.398,0.633-1.348,1.102-2.219,1.102c-0.102,0-0.203-0.008-0.312-0.023l-1.785-0.273c-0.949-0.156-2.105-1.023-2.504-1.891
							l-0.477-1.031c-0.574-1.227-2.074-2.093-3.434-2.155L231.252,88c-0.062,0-0.117,0-0.18,0c-1.262,0-2.949,0.398-3.918,1.117
							l-3.133,2.288c-0.223,0.172-0.473,0.223-0.719,0.223c-0.414,0-0.77-0.268-0.965-0.705l-1.969-4.313
							c-0.41-0.891-0.379-2.402,0.059-3.277l0.91-1.815c0.465-0.945,1.586-2.251,2.445-2.86l3.766-2.672
							c0.938-0.664,2.402-1.728,3.258-2.368c0.559-0.414,1.57-0.695,2.465-0.695c0.246,0,0.484,0.023,0.68,0.07l2.52,0.523
							c0.414,0.094,0.867,0.133,1.309,0.133c0.434,0,1.492-0.047,2.082-0.492c0.508-0.367,1.574-1.086,2.395-1.586
							c0.848-0.516,2.25-1.602,3.102-2.398l0.191-0.172c0.832-0.781,2.195-2.055,3.027-2.844l1.133-1.062
							C250.158,64.663,250.943,64.382,251.693,64.382 M251.693,63.827c-0.859,0-1.789,0.312-2.367,0.859l-1.125,1.062
							c-0.84,0.789-2.199,2.07-3.035,2.844l-0.18,0.172c-0.844,0.773-2.195,1.828-3.023,2.336c-0.828,0.5-1.922,1.234-2.426,1.617
							c-0.332,0.242-1.016,0.383-1.758,0.383c-0.398,0-0.812-0.039-1.195-0.125l-2.512-0.523c-0.246-0.055-0.512-0.078-0.801-0.078
							c-0.988,0-2.125,0.305-2.793,0.797c-0.859,0.633-2.316,1.703-3.246,2.359l-3.77,2.672c-0.93,0.664-2.109,2.047-2.617,3.062
							l-0.91,1.828c-0.52,1.008-0.543,2.703-0.066,3.734l1.961,4.305c0.301,0.664,0.863,1.016,1.473,1.016
							c0.344,0,0.715-0.117,1.051-0.375l3.141-2.352c0.867-0.656,2.441-1.164,3.578-1.164c0.059,0,0.105,0,0.148,0.008l7.598,0.336
							c1.145,0.039,2.465,0.938,2.949,1.961l0.473,1.031c0.473,1.039,1.797,2.023,2.926,2.203l1.781,0.281
							c0.129,0.023,0.273,0.031,0.398,0.031c1.047,0,2.184-0.562,2.684-1.359c0.57-0.906,1.199-2.578,1.375-3.703l0.035-0.203
							c0.18-1.125,1.156-2.469,2.172-2.977c0.512-0.25,1.172-0.383,1.852-0.383c0.668,0,1.34,0.133,1.859,0.383l0.895,0.453
							c1.023,0.508,2.113,1.398,2.434,1.969s0.57,1.786,0.57,2.872c0,1.078-0.93,1.84-2.07,1.84h-2.766
							c-1.141,0-2.238,1.004-2.426,2.09c-0.195,1.078,0.449,2.485,1.449,3.056l0.789,0.485c0.996,0.578,1.801,1.79,1.801,2.681
							c0,0.883-0.703,2.242-1.559,2.992l-0.816,0.715c-0.566,0.508-1.355,0.791-2.031,0.791c-0.336,0-0.656-0.069-0.902-0.218
							c-0.77-0.438-1.758-1.32-2.195-1.961c-0.219-0.32-0.613-0.468-1.062-0.468c-0.461,0-0.984,0.156-1.461,0.492l-0.957,0.648
							c-0.777,0.539-2.086,0.891-3.148,0.891c-0.211,0-0.418-0.016-0.609-0.039l-3.059-0.508c-1.125-0.164-2.711-0.984-3.516-1.781
							l-2.145-2.148c-0.801-0.812-2.293-1.523-3.297-1.586c-1.023-0.062-2.754-0.375-3.855-0.68l-2.465-0.8
							C223.822,97.34,221.99,97,220.85,97h-4.613c-1.141,0-1.736,1.108-1.736,2.249v2.766c0,1.148-0.778,2.797-1.509,3.664
							l-1.108,1.211c-0.734,0.883-1.897,2.156-2.53,2.859c-0.633,0.695-1.892,1.852-2.782,2.578l-0.483,0.383
							c-0.887,0.719-1.76,2.234-1.928,3.367l-0.99,6.492c-0.18,1.133-0.01,2.523,0.373,3.102c0.383,0.57,1.32,1.734,2.086,2.586
							l3.909,4.352c0.762,0.852,2.285,1.836,3.363,2.18l0.898,0.281c0.469,0.156,1.035,0.227,1.605,0.227
							c0.738,0,1.477-0.202,1.98-0.437c0.891-0.438,2.555-0.859,3.695-0.859h5.074c1.141,0,2.789,0.688,3.668,1.414l3.075,2.608
							c0.867,0.734,1.603,2.312,1.603,3.453v0.68c0,1.148,0.401,2.703,0.901,3.469c0.512,0.766,0.981,2.312,1.056,3.453l0.397,5.773
							c0.082,1.141-0.107,2.602-0.428,3.227c-0.328,0.641-0.428,1.836-0.236,2.656c0.188,0.828,0.445,2.43,0.57,3.562l0.245,2.336
							c0.121,1.141,0.676,2.883,1.234,3.883l0.293,0.516c0.539,1,1.312,2.656,1.695,3.664c0.375,1.023,1.605,2.055,2.715,2.305
							l3.102,0.695c0.203,0.055,0.418,0.07,0.641,0.07c1.004,0,2.168-0.445,2.797-1.133l5.945-6.414
							c0.773-0.836,1.473-2.453,1.551-3.586l0.199-3.008c0.062-1.141,0.828-2.695,1.68-3.453l0.812-0.711
							c0.859-0.766,1.918-1.641,2.363-1.961c0.441-0.312,0.84-1.516,0.883-2.648l0.309-8.305c0.039-1.148,0.699-2.773,1.461-3.617
							l3.223-3.602c0.762-0.852,1.891-2.328,2.508-3.297l0.082-0.125c0.605-0.961,1.109-2.445,1.109-3.289s-0.465-2.203-1.035-3.031
							c-0.566-0.82-1.758-2.102-2.633-2.836l-2.824-2.383c-0.871-0.742-2.027-2.172-2.574-3.172l-5.305-9.828
							c-0.293-0.547-0.383-0.82-0.289-0.82c0.078,0,0.281,0.203,0.621,0.602l9.727,11.867c0.492,0.617,1.34,0.961,2.16,0.961
							c0.363,0,0.711-0.062,1.043-0.211l1.754-0.812c1.039-0.469,2.492-1.586,3.211-2.461l0.598-0.719
							c0.719-0.883,1.418-2.484,1.547-3.57c0.129-1.078-0.512-2.523-1.41-3.227l-0.879-0.688c-0.742-0.586-0.742-0.969-0.066-0.969
							c0.137,0,0.297,0.016,0.477,0.047l2.598,0.445c0.316,0.055,0.629,0.086,0.969,0.086c0.867,0,1.73-0.18,2.168-0.484
							c0.602-0.422,0.949-1.672,0.762-2.805l-0.109-0.664c-0.184-1.125-0.68-2.922-1.105-3.977l-0.562-1.406
							c-0.422-1.055-0.77-2.867-0.77-4.008l0,0c0-1.008-0.711-1.711-1.645-1.711c-0.125,0-0.258,0.016-0.398,0.047l-3.984,0.797
							c-0.145,0.031-0.273,0.039-0.398,0.039c-0.938,0-1.645-0.703-1.645-1.703l0,0c0-1.148-0.77-2.609-1.711-3.258l-0.73-0.492
							c-0.934-0.648-1.066-1.859-0.281-2.688l0.141-0.133c0.789-0.836,1.598-2.43,1.801-3.547l0.406-2.148
							c0.207-1.125-0.195-2.781-0.906-3.672l-3.211-4.125c-0.699-0.891-1.941-2.289-2.742-3.102l-5.609-5.602
							c-0.805-0.805-2.328-1.805-3.398-2.219l-2.59-1.023C252.455,63.89,252.088,63.827,251.693,63.827L251.693,63.827z"/>
					</g>
				</g>
			</g>
			<g>
				<g opacity="0.5">
					<path d="M143.529,188.538c-0.406,0-1.496-0.516-2.402-1.242l-1.082-0.867c-0.809-0.633-1.258-2.016-1-3.016l1.371-5.148
						c0.285-1.125,0.609-2.984,0.699-4.133l0.707-9.016c0.098-1.227-0.281-2.688-0.867-3.32c-0.531-0.578-1.633-1.695-2.465-2.477
						l-3.559-3.367c-0.766-0.734-1.422-2.25-1.422-3.312c0-1.242-0.512-2.555-1.16-3c-0.512-0.336-1.113-1.508-1.309-2.555
						l-0.27-1.438c-0.195-1.039,0.109-2.375,0.668-2.93c0.656-0.672,1.277-2.172,1.367-3.367l0.355-4.508
						c0.09-1.055,0.922-2.383,1.812-2.906l1.449-0.852c0.727-0.414,1.953-0.719,2.973-0.719c0.242,0,0.477,0.016,0.68,0.055
						l7.152,1.211c1.031,0.172,2.234,1.133,2.633,2.094c0.012,0.047,0.484,1.164,1.488,1.367c0.863,0.172,2.98,0.617,2.98,0.617
						c1.039,0.203,2.48,1.117,3.129,1.977l4.75,6.195c0.738,0.977,2.176,1.766,3.215,1.766c0.922,0,2.52,0.336,3.555,0.75
						l1.84,0.719c0.977,0.383,1.965,1.57,2.16,2.602l0.246,1.289c0.207,1.062,0.004,2.789-0.438,3.766l-0.715,1.57
						c-0.438,0.977-1.395,2.055-2.094,2.359c-0.875,0.375-1.555,1.594-1.555,2.766c0,0.961-0.391,2.141-0.855,2.562
						c-0.523,0.484-1.598,1.562-2.375,2.414l-2.734,2.992c-0.789,0.867-1.773,2.469-2.195,3.562l-0.242,0.617
						c-0.383,1.016-1.457,2.398-2.332,3.023l-2.684,1.914c-0.949,0.68-2.379,1.875-3.203,2.688l-6.035,5.914
						C144.947,187.968,143.928,188.538,143.529,188.538z"/>
					<path d="M139.396,130.64c0.23,0,0.445,0.023,0.633,0.055l7.152,1.211c0.945,0.156,2.059,1.039,2.418,1.922
						c0.02,0.062,0.555,1.305,1.699,1.531c0.855,0.18,2.969,0.617,2.969,0.617c0.992,0.211,2.352,1.062,2.977,1.867l4.738,6.211
						c0.809,1.047,2.312,1.875,3.441,1.875c0.867,0,2.461,0.336,3.453,0.719l1.848,0.727c0.887,0.352,1.793,1.445,1.984,2.391
						l0.246,1.297c0.203,1.008,0,2.664-0.418,3.594l-0.711,1.578c-0.457,1-1.395,1.969-1.957,2.227
						c-0.965,0.414-1.719,1.734-1.719,3.008c0,0.945-0.41,2.023-0.766,2.359c-0.543,0.492-1.613,1.586-2.395,2.43l-2.73,3
						c-0.812,0.883-1.824,2.523-2.25,3.641l-0.246,0.625c-0.371,0.969-1.398,2.289-2.238,2.891l-2.676,1.914
						c-0.961,0.672-2.41,1.898-3.246,2.711l-6.031,5.922c-0.793,0.781-1.754,1.297-2.043,1.297c-0.305,0-1.332-0.461-2.227-1.172
						l-1.082-0.859c-0.73-0.586-1.141-1.844-0.906-2.742l1.359-5.156c0.305-1.125,0.621-3.008,0.715-4.172l0.707-9.023
						c0.105-1.297-0.309-2.844-0.934-3.516c-0.531-0.586-1.645-1.711-2.48-2.5l-3.562-3.367c-0.723-0.695-1.332-2.109-1.332-3.109
						c0-1.148-0.449-2.664-1.285-3.234c-0.402-0.258-0.992-1.32-1.188-2.375l-0.273-1.445c-0.195-1.031,0.152-2.234,0.594-2.672
						c0.715-0.711,1.348-2.273,1.441-3.539l0.367-4.516c0.07-0.961,0.848-2.203,1.684-2.695l1.441-0.836
						C137.252,130.921,138.408,130.64,139.396,130.64 M139.396,130.085c-1.051,0-2.316,0.297-3.113,0.766l-1.438,0.836
						c-0.984,0.586-1.863,1.992-1.961,3.125l-0.352,4.508c-0.094,1.148-0.672,2.578-1.297,3.211
						c-0.617,0.609-0.953,2.039-0.738,3.148l0.273,1.461c0.215,1.125,0.848,2.352,1.422,2.727c0.562,0.383,1.043,1.641,1.043,2.773
						c0,1.148,0.672,2.719,1.5,3.508l3.562,3.375c0.832,0.789,1.93,1.891,2.457,2.469c0.52,0.562,0.879,1.953,0.785,3.102
						l-0.707,9.016c-0.086,1.141-0.41,2.969-0.695,4.078l-1.359,5.156c-0.289,1.109,0.199,2.594,1.094,3.305l1.074,0.867
						c0.895,0.719,2.055,1.297,2.582,1.297c0.52,0,1.621-0.648,2.43-1.453l6.039-5.922c0.805-0.797,2.238-1.992,3.168-2.656
						l2.684-1.914c0.926-0.664,2.023-2.07,2.43-3.141l0.238-0.633c0.41-1.07,1.379-2.625,2.148-3.461l2.734-3
						c0.766-0.844,1.828-1.922,2.352-2.391c0.527-0.484,0.949-1.727,0.949-2.773s0.625-2.18,1.387-2.508
						c0.754-0.336,1.773-1.461,2.242-2.5l0.711-1.578c0.469-1.039,0.676-2.812,0.461-3.93l-0.254-1.297
						c-0.215-1.117-1.258-2.375-2.328-2.797l-1.84-0.727c-1.062-0.414-2.707-0.766-3.656-0.766c-0.969,0-2.301-0.734-2.992-1.641
						l-4.75-6.219c-0.699-0.898-2.18-1.836-3.301-2.07c0,0-2.117-0.445-2.98-0.609c-0.871-0.18-1.289-1.203-1.289-1.203
						c-0.438-1.055-1.719-2.07-2.836-2.266l-7.156-1.211C139.904,130.108,139.654,130.085,139.396,130.085L139.396,130.085z"/>
				</g>
				<g>
					<g>
						<linearGradient id="SVGID_5_" gradientUnits="userSpaceOnUse" x1="152.0088" y1="186.5381" x2="152.0088" y2="128.3662">
							<stop  offset="0" style="stop-color:#DDDDDD"/>
							<stop  offset="0.2325" style="stop-color:#E9E9E9"/>
							<stop  offset="0.6677" style="stop-color:#F9F9F9"/>
							<stop  offset="1" style="stop-color:#FFFFFF"/>
						</linearGradient>
						<path fill="url(#SVGID_5_)" d="M143.529,186.538c-0.406,0-1.496-0.516-2.402-1.242l-1.082-0.867
							c-0.809-0.633-1.258-2.016-1-3.016l1.371-5.148c0.285-1.125,0.609-2.984,0.699-4.133l0.707-9.016
							c0.098-1.227-0.281-2.688-0.867-3.32c-0.531-0.578-1.633-1.695-2.465-2.477l-3.559-3.367c-0.766-0.734-1.422-2.25-1.422-3.312
							c0-1.242-0.512-2.555-1.16-3c-0.512-0.336-1.113-1.508-1.309-2.555l-0.27-1.438c-0.195-1.039,0.109-2.375,0.668-2.93
							c0.656-0.672,1.277-2.172,1.367-3.367l0.355-4.508c0.09-1.055,0.922-2.383,1.812-2.906l1.449-0.852
							c0.727-0.414,1.953-0.719,2.973-0.719c0.242,0,0.477,0.016,0.68,0.055l7.152,1.211c1.031,0.172,2.234,1.133,2.633,2.094
							c0.012,0.047,0.484,1.164,1.488,1.367c0.863,0.172,2.98,0.617,2.98,0.617c1.039,0.203,2.48,1.117,3.129,1.977l4.75,6.195
							c0.738,0.977,2.176,1.766,3.215,1.766c0.922,0,2.52,0.336,3.555,0.75l1.84,0.719c0.977,0.383,1.965,1.57,2.16,2.602
							l0.246,1.289c0.207,1.062,0.004,2.789-0.438,3.766l-0.715,1.57c-0.438,0.977-1.395,2.055-2.094,2.359
							c-0.875,0.375-1.555,1.594-1.555,2.766c0,0.961-0.391,2.141-0.855,2.562c-0.523,0.484-1.598,1.562-2.375,2.414l-2.734,2.992
							c-0.789,0.867-1.773,2.469-2.195,3.562l-0.242,0.617c-0.383,1.016-1.457,2.398-2.332,3.023l-2.684,1.914
							c-0.949,0.68-2.379,1.875-3.203,2.688l-6.035,5.914C144.947,185.968,143.928,186.538,143.529,186.538z"/>
						<linearGradient id="SVGID_6_" gradientUnits="userSpaceOnUse" x1="152.0098" y1="186.8115" x2="152.0098" y2="128.085">
							<stop  offset="0" style="stop-color:#DDDDDD"/>
							<stop  offset="0.2325" style="stop-color:#E9E9E9"/>
							<stop  offset="0.6677" style="stop-color:#F9F9F9"/>
							<stop  offset="1" style="stop-color:#FFFFFF"/>
						</linearGradient>
						<path fill="url(#SVGID_6_)" d="M139.396,128.64c0.23,0,0.445,0.023,0.633,0.055l7.152,1.211
							c0.945,0.156,2.059,1.039,2.418,1.922c0.02,0.062,0.555,1.305,1.699,1.531c0.855,0.18,2.969,0.617,2.969,0.617
							c0.992,0.211,2.352,1.062,2.977,1.867l4.738,6.211c0.809,1.047,2.312,1.875,3.441,1.875c0.867,0,2.461,0.336,3.453,0.719
							l1.848,0.727c0.887,0.352,1.793,1.445,1.984,2.391l0.246,1.297c0.203,1.008,0,2.664-0.418,3.594l-0.711,1.578
							c-0.457,1-1.395,1.969-1.957,2.227c-0.965,0.414-1.719,1.734-1.719,3.008c0,0.945-0.41,2.023-0.766,2.359
							c-0.543,0.492-1.613,1.586-2.395,2.43l-2.73,3c-0.812,0.883-1.824,2.523-2.25,3.641l-0.246,0.625
							c-0.371,0.969-1.398,2.289-2.238,2.891l-2.676,1.914c-0.961,0.672-2.41,1.898-3.246,2.711l-6.031,5.922
							c-0.793,0.781-1.754,1.297-2.043,1.297c-0.305,0-1.332-0.461-2.227-1.172l-1.082-0.859c-0.73-0.586-1.141-1.844-0.906-2.742
							l1.359-5.156c0.305-1.125,0.621-3.008,0.715-4.172l0.707-9.023c0.105-1.297-0.309-2.844-0.934-3.516
							c-0.531-0.586-1.645-1.711-2.48-2.5l-3.562-3.367c-0.723-0.695-1.332-2.109-1.332-3.109c0-1.148-0.449-2.664-1.285-3.234
							c-0.402-0.258-0.992-1.32-1.188-2.375l-0.273-1.445c-0.195-1.031,0.152-2.234,0.594-2.672
							c0.715-0.711,1.348-2.273,1.441-3.539l0.367-4.516c0.07-0.961,0.848-2.203,1.684-2.695l1.441-0.836
							C137.252,128.921,138.408,128.64,139.396,128.64 M139.396,128.085c-1.051,0-2.316,0.297-3.113,0.766l-1.438,0.836
							c-0.984,0.586-1.863,1.992-1.961,3.125l-0.352,4.508c-0.094,1.148-0.672,2.578-1.297,3.211
							c-0.617,0.609-0.953,2.039-0.738,3.148l0.273,1.461c0.215,1.125,0.848,2.352,1.422,2.727c0.562,0.383,1.043,1.641,1.043,2.773
							c0,1.148,0.672,2.719,1.5,3.508l3.562,3.375c0.832,0.789,1.93,1.891,2.457,2.469c0.52,0.562,0.879,1.953,0.785,3.102
							l-0.707,9.016c-0.086,1.141-0.41,2.969-0.695,4.078l-1.359,5.156c-0.289,1.109,0.199,2.594,1.094,3.305l1.074,0.867
							c0.895,0.719,2.055,1.297,2.582,1.297c0.52,0,1.621-0.648,2.43-1.453l6.039-5.922c0.805-0.797,2.238-1.992,3.168-2.656
							l2.684-1.914c0.926-0.664,2.023-2.07,2.43-3.141l0.238-0.633c0.41-1.07,1.379-2.625,2.148-3.461l2.734-3
							c0.766-0.844,1.828-1.922,2.352-2.391c0.527-0.484,0.949-1.727,0.949-2.773s0.625-2.18,1.387-2.508
							c0.754-0.336,1.773-1.461,2.242-2.5l0.711-1.578c0.469-1.039,0.676-2.812,0.461-3.93l-0.254-1.297
							c-0.215-1.117-1.258-2.375-2.328-2.797l-1.84-0.727c-1.062-0.414-2.707-0.766-3.656-0.766c-0.969,0-2.301-0.734-2.992-1.641
							l-4.75-6.219c-0.699-0.898-2.18-1.836-3.301-2.07c0,0-2.117-0.445-2.98-0.609c-0.871-0.18-1.289-1.203-1.289-1.203
							c-0.438-1.055-1.719-2.07-2.836-2.266l-7.156-1.211C139.904,128.108,139.654,128.085,139.396,128.085L139.396,128.085z"/>
					</g>
				</g>
			</g>
			<g>
				<g opacity="0.5">
					<path d="M133.209,131.202c-0.098,0-0.211-0.039-0.348-0.117c-0.715-0.398-1.727-1.555-2.195-2.523l-0.953-1.961
						c-0.531-1.094-1.93-2.219-3.117-2.5c-1.133-0.273-2.445-1.258-2.961-2.195l-3.98-7.211c-0.516-0.93-0.711-2.586-0.434-3.609
						l2.645-9.734c0.301-1.094,0.934-2.812,1.398-3.844l2.984-6.508c0.473-1.039,1.371-2.633,2.012-3.562l5.82-8.539
						c0.645-0.945,1.75-2.43,2.465-3.305l5.684-6.945c0.711-0.867,2.031-2.125,2.922-2.805l7.297-5.516
						c0.328-0.25,0.719-0.375,1.152-0.375c0.582,0,1.125,0.242,1.473,0.656l1.457,1.695c0.652,0.766,0.641,1.992-0.043,2.734
						l-1.809,1.969c-0.852,0.922-1.012,2.547-0.34,3.617l2.418,3.867c0.242,0.391,0.305,0.789,0.164,1.125
						c-0.145,0.359-0.461,0.602-0.906,0.719l-3.363,0.836c-1.156,0.297-2.684,1.328-3.375,2.312l-4.965,6.914
						c-0.684,0.953-1.453,2.672-1.703,3.82l-0.191,0.867c-0.227,1.055-1.121,2.508-1.961,3.18l-4.457,3.617
						c-0.914,0.734-2.082,2.203-2.598,3.258l-3.254,6.656c-0.164,0.336-0.413,0.477-0.472,0.523
						c0.008-0.062-0.175-0.242-0.175-0.617v-2.766c0-1.219-0.661-2.812-1.638-3.547l-1.233-0.961
						c-0.355-0.273-0.718-0.414-1.089-0.414c-0.727,0-1.304,0.5-1.55,1.297l-0.648,2.25c-0.336,1.109-0.645,2.961-0.703,4.125
						l-0.248,4.625c-0.035,0.641,0.185,1.384,0.606,1.837c0.43,0.445,1.009,0.852,1.638,0.852h1.383c0.469,0,0.855,0.016,1.102,0.32
						c0.242,0.32,0.32,0.659,0.199,1.112l-0.367,1.467c-0.301,1.195,0.227,2.808,1.195,3.589l2.777,2.271
						c0.836,0.688,1.707,2.143,1.914,3.189l0.625,3.178c0.086,0.453,0.051,0.818-0.078,0.99
						C133.338,131.172,133.283,131.202,133.209,131.202z"/>
					<path d="M153.6,60.226c0.496,0,0.965,0.211,1.27,0.562l1.445,1.688c0.562,0.648,0.551,1.742-0.035,2.375l-1.812,1.961
						c-0.941,1.031-1.109,2.773-0.359,3.953l2.418,3.867c0.195,0.312,0.238,0.633,0.141,0.891c-0.102,0.258-0.367,0.461-0.723,0.547
						l-3.352,0.836c-1.242,0.312-2.801,1.375-3.551,2.414l-4.957,6.914c-0.707,0.977-1.48,2.742-1.746,3.93l-0.195,0.859
						c-0.215,1.008-1.074,2.391-1.852,3.023l-4.461,3.625c-0.961,0.766-1.907,2.25-2.446,3.352l-2.884,6.375v-2.461
						c0-1.32-1.054-2.977-2.112-3.766l-1.405-0.969c-0.41-0.297-0.926-0.461-1.352-0.461c-0.855,0-1.584,0.57-1.857,1.492
						l-0.675,2.25c-0.34,1.133-0.675,3.016-0.733,4.188l-0.25,4.625c-0.035,0.703,0.209,1.396,0.689,1.903
						c0.473,0.492,1.123,0.801,1.83,0.801h1.383c0.379,0,0.691,0.105,0.879,0.348c0.191,0.25,0.246,0.575,0.156,0.95l-0.371,1.503
						c-0.328,1.312,0.234,3.021,1.285,3.881l2.789,2.279c0.789,0.648,1.617,2.039,1.801,3.039l0.637,3.179
						c0.098,0.5,0.012,0.727,0.016,0.742c-0.016,0-0.078-0.008-0.211-0.07c-0.68-0.383-1.637-1.484-2.078-2.414l-0.953-1.961
						c-0.578-1.18-2.031-2.336-3.301-2.641l-0.113-0.023c-0.973-0.242-2.191-1.164-2.672-2.031l-3.988-7.219
						c-0.48-0.883-0.664-2.438-0.41-3.406l2.648-9.727c0.301-1.078,0.926-2.789,1.395-3.805l2.977-6.508
						c0.465-1.023,1.352-2.594,1.988-3.516l5.816-8.547c0.641-0.938,1.75-2.414,2.457-3.281l5.676-6.945
						c0.691-0.844,2.008-2.117,2.879-2.766l7.301-5.516C152.893,60.335,153.232,60.226,153.6,60.226 M153.6,59.671
						c-0.465,0-0.934,0.141-1.32,0.438l-7.297,5.516c-0.91,0.688-2.246,1.969-2.973,2.852l-5.676,6.938
						c-0.727,0.891-1.844,2.391-2.488,3.328l-5.82,8.547c-0.633,0.93-1.555,2.555-2.031,3.586l-2.98,6.523
						c-0.473,1.023-1.109,2.781-1.418,3.883l-2.641,9.727c-0.301,1.109-0.102,2.828,0.457,3.828l3.984,7.211
						c0.555,1,1.914,2.031,3.023,2.305l0.113,0.016c1.113,0.273,2.438,1.328,2.934,2.359l0.957,1.953
						c0.496,1.031,1.539,2.227,2.309,2.648c0.176,0.102,0.332,0.148,0.477,0.148c0.465,0,0.695-0.531,0.527-1.398l-0.625-3.188
						c-0.227-1.125-1.129-2.625-2.008-3.352l-2.785-2.289c-0.879-0.719-1.375-2.219-1.105-3.328l0.375-1.71
						c0.277-1.109-0.43-2.211-1.57-2.211h-1.383c-1.141,0-2.027-0.742-1.965-1.875l0.246-4.524c0.055-1.133,0.375-2.91,0.695-4.012
						l0.66-2.225c0.211-0.703,0.715-1.081,1.301-1.081c0.305,0,0.637,0.123,0.957,0.357l1.296,0.973
						c0.918,0.68,1.675,2.175,1.675,3.323v2.766c0,0.617,0.11,0.922,0.29,0.922c0.168,0,0.372-0.234,0.61-0.711l3.244-6.648
						c0.516-1.023,1.64-2.453,2.526-3.164l4.46-3.625c0.891-0.711,1.812-2.211,2.062-3.328l0.188-0.867
						c0.246-1.117,0.984-2.789,1.656-3.719l4.965-6.922c0.66-0.93,2.117-1.922,3.219-2.188l3.355-0.844
						c1.105-0.281,1.52-1.305,0.91-2.266l-2.41-3.867c-0.602-0.961-0.469-2.445,0.305-3.289l1.805-1.961
						c0.773-0.844,0.801-2.242,0.051-3.102l-1.449-1.688C154.869,59.937,154.236,59.671,153.6,59.671L153.6,59.671z"/>
				</g>
				<g>
					<g>
						<linearGradient id="SVGID_7_" gradientUnits="userSpaceOnUse" x1="138.0518" y1="129.2021" x2="138.0518" y2="57.9526">
							<stop  offset="0" style="stop-color:#DDDDDD"/>
							<stop  offset="0.2325" style="stop-color:#E9E9E9"/>
							<stop  offset="0.6677" style="stop-color:#F9F9F9"/>
							<stop  offset="1" style="stop-color:#FFFFFF"/>
						</linearGradient>
						<path fill="url(#SVGID_7_)" d="M133.209,129.202c-0.098,0-0.211-0.039-0.348-0.117c-0.715-0.398-1.727-1.555-2.195-2.523
							l-0.953-1.961c-0.531-1.094-1.93-2.219-3.117-2.5c-1.133-0.273-2.445-1.258-2.961-2.195l-3.98-7.211
							c-0.516-0.93-0.711-2.586-0.434-3.609l2.645-9.734c0.301-1.094,0.934-2.812,1.398-3.844l2.984-6.508
							c0.473-1.039,1.371-2.633,2.012-3.562l5.82-8.539c0.645-0.945,1.75-2.43,2.465-3.305l5.684-6.945
							c0.711-0.867,2.031-2.125,2.922-2.805l7.297-5.516c0.328-0.25,0.719-0.375,1.152-0.375c0.582,0,1.125,0.242,1.473,0.656
							l1.457,1.695c0.652,0.766,0.641,1.992-0.043,2.734l-1.809,1.969c-0.852,0.922-1.012,2.547-0.34,3.617l2.418,3.867
							c0.242,0.391,0.305,0.789,0.164,1.125c-0.145,0.359-0.461,0.602-0.906,0.719l-3.363,0.836
							c-1.156,0.297-2.684,1.328-3.375,2.312l-4.965,6.914c-0.684,0.953-1.453,2.672-1.703,3.82l-0.191,0.867
							c-0.227,1.055-1.121,2.508-1.961,3.18l-4.457,3.617c-0.914,0.734-2.082,2.203-2.598,3.258l-3.254,6.656
							c-0.164,0.336-0.413,0.477-0.472,0.523c0.008-0.062-0.175-0.242-0.175-0.617v-2.766c0-1.219-0.661-2.812-1.638-3.547
							l-1.233-0.961c-0.355-0.273-0.718-0.414-1.089-0.414c-0.727,0-1.304,0.5-1.55,1.297l-0.648,2.25
							c-0.336,1.109-0.645,2.961-0.703,4.125l-0.248,4.625c-0.035,0.641,0.185,1.384,0.606,1.837
							c0.43,0.445,1.009,0.852,1.638,0.852h1.383c0.469,0,0.855,0.016,1.102,0.32c0.242,0.32,0.32,0.659,0.199,1.112l-0.367,1.467
							c-0.301,1.195,0.227,2.808,1.195,3.589l2.777,2.271c0.836,0.688,1.707,2.143,1.914,3.189l0.625,3.178
							c0.086,0.453,0.051,0.818-0.078,0.99C133.338,129.172,133.283,129.202,133.209,129.202z"/>
						<linearGradient id="SVGID_8_" gradientUnits="userSpaceOnUse" x1="138.0488" y1="129.4756" x2="138.0488" y2="57.6714">
							<stop  offset="0" style="stop-color:#DDDDDD"/>
							<stop  offset="0.2325" style="stop-color:#E9E9E9"/>
							<stop  offset="0.6677" style="stop-color:#F9F9F9"/>
							<stop  offset="1" style="stop-color:#FFFFFF"/>
						</linearGradient>
						<path fill="url(#SVGID_8_)" d="M153.6,58.226c0.496,0,0.965,0.211,1.27,0.562l1.445,1.688
							c0.562,0.648,0.551,1.742-0.035,2.375l-1.812,1.961c-0.941,1.031-1.109,2.773-0.359,3.953l2.418,3.867
							c0.195,0.312,0.238,0.633,0.141,0.891c-0.102,0.258-0.367,0.461-0.723,0.547l-3.352,0.836
							c-1.242,0.312-2.801,1.375-3.551,2.414l-4.957,6.914c-0.707,0.977-1.48,2.742-1.746,3.93l-0.195,0.859
							c-0.215,1.008-1.074,2.391-1.852,3.023l-4.461,3.625c-0.961,0.766-1.907,2.25-2.446,3.352l-2.884,6.375v-2.461
							c0-1.32-1.054-2.977-2.112-3.766l-1.405-0.969c-0.41-0.297-0.926-0.461-1.352-0.461c-0.855,0-1.584,0.57-1.857,1.492
							l-0.675,2.25c-0.34,1.133-0.675,3.016-0.733,4.188l-0.25,4.625c-0.035,0.703,0.209,1.396,0.689,1.903
							c0.473,0.492,1.123,0.801,1.83,0.801h1.383c0.379,0,0.691,0.105,0.879,0.348c0.191,0.25,0.246,0.575,0.156,0.95l-0.371,1.503
							c-0.328,1.312,0.234,3.021,1.285,3.881l2.789,2.279c0.789,0.648,1.617,2.039,1.801,3.039l0.637,3.179
							c0.098,0.5,0.012,0.727,0.016,0.742c-0.016,0-0.078-0.008-0.211-0.07c-0.68-0.383-1.637-1.484-2.078-2.414l-0.953-1.961
							c-0.578-1.18-2.031-2.336-3.301-2.641l-0.113-0.023c-0.973-0.242-2.191-1.164-2.672-2.031l-3.988-7.219
							c-0.48-0.883-0.664-2.438-0.41-3.406l2.648-9.727c0.301-1.078,0.926-2.789,1.395-3.805l2.977-6.508
							c0.465-1.023,1.352-2.594,1.988-3.516l5.816-8.547c0.641-0.938,1.75-2.414,2.457-3.281l5.676-6.945
							c0.691-0.844,2.008-2.117,2.879-2.766l7.301-5.516C152.893,58.335,153.232,58.226,153.6,58.226 M153.6,57.671
							c-0.465,0-0.934,0.141-1.32,0.438l-7.297,5.516c-0.91,0.688-2.246,1.969-2.973,2.852l-5.676,6.938
							c-0.727,0.891-1.844,2.391-2.488,3.328l-5.82,8.547c-0.633,0.93-1.555,2.555-2.031,3.586l-2.98,6.523
							c-0.473,1.023-1.109,2.781-1.418,3.883l-2.641,9.727c-0.301,1.109-0.102,2.828,0.457,3.828l3.984,7.211
							c0.555,1,1.914,2.031,3.023,2.305l0.113,0.016c1.113,0.273,2.438,1.328,2.934,2.359l0.957,1.953
							c0.496,1.031,1.539,2.227,2.309,2.648c0.176,0.102,0.332,0.148,0.477,0.148c0.465,0,0.695-0.531,0.527-1.398l-0.625-3.188
							c-0.227-1.125-1.129-2.625-2.008-3.352l-2.785-2.289c-0.879-0.719-1.375-2.219-1.105-3.328l0.375-1.71
							c0.277-1.109-0.43-2.211-1.57-2.211h-1.383c-1.141,0-2.027-0.742-1.965-1.875l0.246-4.524c0.055-1.133,0.375-2.91,0.695-4.012
							l0.66-2.225c0.211-0.703,0.715-1.081,1.301-1.081c0.305,0,0.637,0.123,0.957,0.357l1.296,0.973
							c0.918,0.68,1.675,2.175,1.675,3.323v2.766c0,0.617,0.11,0.922,0.29,0.922c0.168,0,0.372-0.234,0.61-0.711l3.244-6.648
							c0.516-1.023,1.64-2.453,2.526-3.164l4.46-3.625c0.891-0.711,1.812-2.211,2.062-3.328l0.188-0.867
							c0.246-1.117,0.984-2.789,1.656-3.719l4.965-6.922c0.66-0.93,2.117-1.922,3.219-2.188l3.355-0.844
							c1.105-0.281,1.52-1.305,0.91-2.266l-2.41-3.867c-0.602-0.961-0.469-2.445,0.305-3.289l1.805-1.961
							c0.773-0.844,0.801-2.242,0.051-3.102l-1.449-1.688C154.869,57.937,154.236,57.671,153.6,57.671L153.6,57.671z"/>
					</g>
				</g>
			</g>
		</g>
	</g>
	<g>
		<path fill="#304C70" d="M330.131,317c1.453,0,2.895,0.359,4.262,0.586s2.656,0.671,3.801,1.077
			c1.148,0.414,2.152,0.957,2.941,1.504c0.797,0.547,1.379,1.178,1.676,1.818l40.41,77.772l-0.152,10.805
			c-0.277,0.914-0.91,1.745-1.844,2.448c-0.941,0.703-2.184,1.128-3.672,1.519c-1.492,0.398-3.23,0.471-5.156,0.471H26.166
			c-1.914,0-3.641-0.07-5.129-0.469c-1.484-0.391-2.723-0.888-3.656-1.591s-1.566-1.494-1.84-2.408l-0.156-10.771l40.414-77.756
			c0.297-0.641,0.879-1.238,1.672-1.785s1.797-1.028,2.941-1.442c1.145-0.406,2.43-0.968,3.793-1.194
			c1.359-0.227,2.793-0.584,4.238-0.584H330.131z"/>
		<path fill="#4077C0" d="M330.131,308c1.453,0,2.895-0.035,4.262,0.191s2.656,0.481,3.801,0.888
			c1.148,0.406,2.152,0.858,2.941,1.397c0.797,0.547,1.379,1.137,1.676,1.77l39.961,85.583c0.488,1.047,0.57,2.042,0.297,2.956
			c-0.277,0.922-0.91,1.748-1.844,2.451c-0.941,0.695-2.184,1.507-3.672,1.905c-1.492,0.398-3.23,0.858-5.156,0.858H26.166
			c-1.914,0-3.641-0.461-5.129-0.859c-1.484-0.398-2.723-1.091-3.656-1.786c-0.934-0.703-1.566-1.592-1.84-2.514
			c-0.273-0.914-0.191-1.944,0.297-2.991l39.961-85.609c0.297-0.633,0.879-1.249,1.672-1.796c0.793-0.539,1.797-1.035,2.941-1.441
			s2.43-0.584,3.793-0.811c1.359-0.227,2.793-0.192,4.238-0.192H330.131z"/>
		<path fill="#FFFFFF" d="M125.279,342c0.535,0,1.039,0.156,1.484,0.25c0.449,0.094,0.84,0.284,1.16,0.448
			c0.32,0.172,0.562,0.4,0.719,0.619c0.152,0.227,0.211,0.481,0.156,0.739l-2.418,11.646c-0.059,0.281-0.227,0.543-0.484,0.785
			s-0.602,0.462-1.012,0.642c-0.41,0.188-0.883,0.475-1.391,0.576c-0.512,0.102-1.059,0.294-1.621,0.294H75.689
			c-0.562,0-1.078-0.191-1.531-0.293c-0.449-0.102-0.836-0.319-1.141-0.507c-0.305-0.18-0.527-0.433-0.648-0.675
			c-0.117-0.242-0.137-0.517-0.039-0.798l4.215-11.649c0.094-0.258,0.293-0.505,0.574-0.731c0.277-0.219,0.637-0.424,1.055-0.596
			c0.414-0.164,0.883-0.406,1.383-0.5c0.504-0.094,1.035-0.251,1.57-0.251H125.279z"/>
		<path fill="#FFFFFF" d="M221.361,342c0.539,0,1.055,0.156,1.527,0.25s0.906,0.284,1.273,0.448c0.367,0.172,0.668,0.4,0.887,0.619
			c0.215,0.227,0.344,0.481,0.363,0.739l0.898,11.646c0.02,0.281-0.074,0.543-0.262,0.785c-0.191,0.242-0.473,0.462-0.828,0.642
			c-0.359,0.188-0.789,0.475-1.27,0.576S222.939,358,222.377,358h-46.184c-0.562,0-1.094-0.191-1.574-0.293
			c-0.484-0.102-0.914-0.319-1.27-0.507c-0.355-0.18-0.641-0.433-0.828-0.675s-0.281-0.517-0.262-0.798l0.898-11.649
			c0.02-0.258,0.148-0.505,0.367-0.731c0.215-0.219,0.516-0.424,0.883-0.596c0.367-0.164,0.801-0.406,1.273-0.5
			c0.477-0.094,0.992-0.251,1.527-0.251H221.361z"/>
		<path fill="#FFFFFF" d="M317.443,342c0.543,0,1.082,0.156,1.59,0.25c0.504,0.094,0.977,0.284,1.395,0.448
			c0.418,0.172,0.777,0.4,1.059,0.619c0.281,0.227,0.48,0.481,0.574,0.739l4.215,11.646c0.098,0.281,0.078,0.543-0.043,0.785
			s-0.34,0.462-0.648,0.642c-0.309,0.188-0.699,0.475-1.152,0.576c-0.461,0.102-0.98,0.294-1.551,0.294h-46.145
			c-0.562,0-1.109-0.191-1.621-0.293s-0.98-0.319-1.391-0.507c-0.41-0.18-0.754-0.433-1.012-0.675s-0.426-0.517-0.484-0.798
			l-2.422-11.649c-0.051-0.258,0.008-0.505,0.16-0.731c0.152-0.219,0.398-0.424,0.719-0.596c0.32-0.164,0.711-0.406,1.16-0.5
			c0.445-0.094,0.945-0.251,1.484-0.251H317.443z"/>
	</g>
	<path opacity="0.5" fill="#304C70" d="M256.393,349.968c0,9.062-25.566,16.414-57.109,16.414c-31.539,0-57.105-7.352-57.105-16.414
		c0-9.07,25.566-16.422,57.105-16.422C230.826,333.546,256.393,340.897,256.393,349.968z"/>
</g>


</svg>
