<?xml version="1.0" encoding="utf-8"?>
<!-- Generator: Adobe Illustrator 15.0.0, SVG Export Plug-In . SVG Version: 6.00 Build 0)  -->
<!DOCTYPE svg PUBLIC "-//W3C//DTD SVG 1.1//EN" "http://www.w3.org/Graphics/SVG/1.1/DTD/svg11.dtd">
<svg version="1.1" id="Layer_1" xmlns="http://www.w3.org/2000/svg" xmlns:xlink="http://www.w3.org/1999/xlink" x="0px" y="0px"
	 width="512px" height="512px" viewBox="0 0 512 512" enable-background="new 0 0 512 512" xml:space="preserve">
<path fill="#007DC3" d="M37.11,474.101h468.75v31.25h-500v-500h31.25v93.75h31.25v31.25H37.11v62.5h31.25v31.25H37.11v62.5h31.25
	v31.25H37.11v62.5h31.25v31.25H37.11V474.101z M99.61,333.476c0-25.879,20.98-46.875,46.875-46.875
	c4.875,0,9.438,0.977,13.908,2.289l40.84-54.475c-4.951-7.438-7.873-16.364-7.873-25.939c0-25.879,21.019-46.875,46.875-46.875
	c25.878,0,46.875,20.996,46.875,46.875c0,4.891-0.977,9.453-2.318,13.894l54.473,40.854c7.477-4.921,16.389-7.873,25.971-7.873
	c1.953,0,3.785,0.328,5.646,0.58l54.383-108.734c-8.148-8.423-13.199-19.844-13.199-32.471c0-25.879,21.012-46.875,46.875-46.875
	s46.875,20.996,46.875,46.875c0,25.856-21.012,46.875-46.875,46.875c-1.953,0-3.77-0.328-5.662-0.58l-54.352,108.734
	c8.133,8.423,13.154,19.867,13.154,32.471c0,25.849-20.996,46.875-46.875,46.875c-25.865,0-46.875-21.026-46.875-46.875
	c0-4.853,0.977-9.43,2.287-13.916l-54.457-40.832c-7.455,4.936-16.381,7.873-25.956,7.873c-4.891,0-9.438-0.954-13.894-2.297
	l-40.855,54.451c4.921,7.477,7.874,16.357,7.874,25.971c0,25.849-20.988,46.875-46.875,46.875
	C120.56,380.351,99.594,359.324,99.61,333.476L99.61,333.476z M443.359,114.726c0,8.637,6.988,15.625,15.625,15.625
	c8.668,0,15.625-6.988,15.625-15.625s-6.957-15.625-15.625-15.625C450.348,99.101,443.359,106.089,443.359,114.726z
	 M349.609,302.226c0,8.637,6.988,15.625,15.625,15.625c8.668,0,15.625-6.988,15.625-15.625s-6.957-15.625-15.625-15.625
	C356.598,286.601,349.609,293.589,349.609,302.226z M224.61,208.476c0,8.637,6.98,15.625,15.625,15.625
	c8.659,0,15.625-6.988,15.625-15.625s-6.966-15.625-15.625-15.625C231.59,192.851,224.61,199.839,224.61,208.476z M130.86,333.476
	c0,8.637,6.98,15.625,15.625,15.625c8.659,0,15.625-6.988,15.625-15.625s-6.966-15.625-15.625-15.625
	C137.84,317.851,130.86,324.839,130.86,333.476z"/>
<circle fill="#F1581C" cx="459.229" cy="113.737" r="30"/>
</svg>
