<?xml version="1.0" encoding="utf-8"?>
<!-- Generator: Adobe Illustrator 15.0.0, SVG Export Plug-In . SVG Version: 6.00 Build 0)  -->
<!DOCTYPE svg PUBLIC "-//W3C//DTD SVG 1.1//EN" "http://www.w3.org/Graphics/SVG/1.1/DTD/svg11.dtd">
<svg version="1.1" id="Layer_1" xmlns="http://www.w3.org/2000/svg" xmlns:xlink="http://www.w3.org/1999/xlink" x="0px" y="0px"
	 width="450px" height="350px" viewBox="0 0 450 350" enable-background="new 0 0 450 350" xml:space="preserve">
<g>
	<g>
		<g id="list" transform="translate(423.000000, 301.000000)">
			<g>
				<path fill="#007DC3" d="M-423-50.813h50v-49.906h-50V-50.813L-423-50.813z M-423,49h50V-0.906h-50V49L-423,49z M-423-150.625h50
					v-49.906h-50V-150.625L-423-150.625z M-323-50.813H27v-49.906h-350V-50.813L-323-50.813z M-323,49H27V-0.906h-350V49L-323,49z
					 M-323-200.531v49.906H27v-49.906H-323L-323-200.531z"/>
			</g>
		</g>
		<rect fill="#007DC3" width="450" height="47.465"/>
	</g>
	<line fill="none" x1="151.246" y1="99.07" x2="294.229" y2="99.07"/>
</g>
</svg>
