<?xml version="1.0" encoding="utf-8"?>
<!-- Generator: Adobe Illustrator 15.0.0, SVG Export Plug-In . SVG Version: 6.00 Build 0)  -->
<!DOCTYPE svg PUBLIC "-//W3C//DTD SVG 1.1//EN" "http://www.w3.org/Graphics/SVG/1.1/DTD/svg11.dtd">
<svg version="1.1" id="Layer_1" xmlns="http://www.w3.org/2000/svg" xmlns:xlink="http://www.w3.org/1999/xlink" x="0px" y="0px"
	 width="500px" height="500px" viewBox="0 0 500 500" enable-background="new 0 0 500 500" xml:space="preserve">
<g>
	<linearGradient id="SVGID_1_" gradientUnits="userSpaceOnUse" x1="306.6816" y1="362.8262" x2="425.168" y2="362.8262">
		<stop  offset="0" style="stop-color:#0C80B1"/>
		<stop  offset="1" style="stop-color:#1096CB"/>
	</linearGradient>
	<path fill="url(#SVGID_1_)" d="M394.315,386.177l26.778-5.289c1.872-0.365,3.379-1.764,3.892-3.607
		c0.513-1.852-0.079-3.813-1.487-5.094l-108.404-97.379c-1.596-1.438-3.931-1.703-5.813-0.66c-1.882,1.045-2.897,3.162-2.522,5.281
		l24.759,141.912c0.315,1.852,1.646,3.369,3.448,3.939c1.743,0.563,3.754,0.09,5.084-1.24l21.438-21.479l26.778,47.035
		c0.7,1.221,1.872,2.098,3.232,2.414c0.384,0.088,0.768,0.127,1.152,0.127c0.995,0,1.971-0.295,2.808-0.857l27.488-18.512
		c1.143-0.777,1.921-1.99,2.157-3.359c0.217-1.369-0.128-2.779-0.966-3.873L394.315,386.177z"/>
	<linearGradient id="SVGID_2_" gradientUnits="userSpaceOnUse" x1="0" y1="182.7534" x2="500" y2="182.7534">
		<stop  offset="0" style="stop-color:#0C80B1"/>
		<stop  offset="1" style="stop-color:#1096CB"/>
	</linearGradient>
	<path fill="url(#SVGID_2_)" d="M481.853,49.043H18.167C8.138,49.043,0,57.171,0,67.201s8.138,18.158,18.167,18.158H250v194.789
		H18.167C8.138,280.147,0,288.276,0,298.306s8.138,18.158,18.167,18.158h264.335l-5.557-31.764
		c-2.621-14.838,4.463-29.705,17.694-37.035c5.222-2.887,11.133-4.414,17.084-4.414c8.758,0,17.162,3.232,23.586,9.045
		l71.438,64.168h75.094c10.029,0,18.157-8.129,18.157-18.158V67.201C500.01,57.171,491.882,49.043,481.853,49.043z M425.163,159.496
		c0.059,1.458-0.296,2.916-1.192,4.148l-43.921,54.227c-1.232,1.695-3.202,2.699-5.32,2.699c-2.099,0-4.089-1.014-5.32-2.699
		l-43.922-54.227c-1.478-2-1.654-4.65-0.551-6.857c0.305-0.581,0.699-1.104,1.152-1.566c0.01-0.03,0.029-0.069,0.059-0.099
		c0.335-0.335,0.72-0.631,1.134-0.887c0.099-0.069,0.217-0.108,0.325-0.178c0.364-0.207,0.738-0.374,1.143-0.502
		c0.138-0.04,0.285-0.099,0.443-0.139c0.512-0.138,1.044-0.216,1.596-0.216h87.862c2.473,0,4.749,1.379,5.853,3.576
		c0.227,0.453,0.384,0.906,0.482,1.408C425.104,158.629,425.133,159.063,425.163,159.496L425.163,159.496z"/>
</g>
</svg>
