<?xml version="1.0" ?><svg height="512" id="Layer_1" version="1.1" viewBox="0 0 512 512" width="512" xml:space="preserve" xmlns="http://www.w3.org/2000/svg" xmlns:cc="http://creativecommons.org/ns#" xmlns:dc="http://purl.org/dc/elements/1.1/" xmlns:rdf="http://www.w3.org/1999/02/22-rdf-syntax-ns#" xmlns:svg="http://www.w3.org/2000/svg"><defs id="defs32"/><g id="Document_2_" transform="matrix(1.0666667,0,0,-1.0666667,-0.8000001,0)"><g id="Spread_2_" transform="translate(0,-24)"><g id="MouseOff_2_"><linearGradient gradientTransform="matrix(0.2134,-1.4061,1.3831,0.3646,351.2536,724.6906)" gradientUnits="userSpaceOnUse" id="path96_1_" x1="520.86548" x2="727.89368" y1="-166.7807" y2="-166.7807"><stop id="stop7" offset="0" style="stop-color:#e84d4d;stop-opacity:1"/><stop id="stop9" offset="1" style="stop-color:#b82626;stop-opacity:1"/></linearGradient><path d="m 240.893,-311.376 c -12.536,76.447 -59.44,101.919 -84.513,144.367 -5.761,11.568 -8.895,24.535 -8.895,38.223 0,49.208 41.834,89.152 93.408,89.152 51.528,0 93.408,-39.944 93.408,-89.152 0,-13.719 -3.134,-26.655 -8.91,-38.223 -25.043,-42.448 -63.082,-67.92 -84.498,-144.367 z m 42.464,186.815 c 0,23.429 -19.02,42.464 -42.464,42.464 -23.429,0 -42.464,-19.035 -42.464,-42.464 0,-23.429 19.035,-42.448 42.464,-42.448 23.444,0 42.464,19.019 42.464,42.448 z" id="path96" style="fill:url(#path96_1_)"/></g></g></g><g id="g12"><linearGradient gradientUnits="userSpaceOnUse" id="SVGID_1_" x1="412.8154" x2="412.8154" y1="411.53519" y2="112.4986"><stop id="stop15" offset="0" style="stop-color:#fcbc1c;stop-opacity:1"/><stop id="stop17" offset="1" style="stop-color:#f9a91a;stop-opacity:1"/></linearGradient><path d="m 411.078,153.106 c -14.191,0 -27.661,2.884 -39.919,7.997 0.032,0.639 0.131,1.246 0.131,1.868 0,16.863 -3.736,32.906 -11.144,47.704 l -0.491,0.934 c -9.014,15.273 -19.075,28.088 -29.76,41.64 -5.015,6.342 -10.029,12.749 -15.011,19.501 1.573,5.571 3.474,11.045 6.063,16.224 26.744,45.262 76.758,72.465 90.13,153.976 22.877,-81.511 63.419,-108.714 90.163,-153.976 6.162,-12.356 9.505,-26.188 9.505,-40.755 10e-4,-52.522 -44.638,-95.113 -99.667,-95.113 z m 0,135.868 c -25.007,0 -45.262,-20.304 -45.262,-45.328 0,-24.958 20.255,-45.246 45.262,-45.246 25.04,0 45.295,20.288 45.295,45.246 0,25.024 -20.255,45.328 -45.295,45.328 z" id="path19" style="fill:url(#SVGID_1_)"/></g><g id="g21"><linearGradient gradientUnits="userSpaceOnUse" id="SVGID_2_" x1="99.9478" x2="99.947701" y1="411.53519" y2="112.4986"><stop id="stop24" offset="0" style="stop-color:#0c80b1;stop-opacity:1"/><stop id="stop26" offset="1" style="stop-color:#1096cb;stop-opacity:1"/></linearGradient><path d="m 184.9,253.888 c -11.324,-13.126 -23.041,-26.679 -32.234,-42.279 l -0.524,-0.934 c -7.375,-14.831 -11.111,-30.841 -11.111,-47.704 0,-0.623 0.065,-1.229 0.082,-1.868 -12.225,-5.113 -25.712,-7.997 -39.903,-7.997 -54.996,0 -99.635,42.591 -99.635,95.112 0,14.568 3.327,28.399 9.488,40.755 26.728,45.262 76.758,72.465 90.147,153.976 22.844,-81.511 63.403,-108.714 90.13,-153.976 3.048,-6.097 5.375,-12.553 6.981,-19.255 -4.424,-5.424 -8.947,-10.652 -13.421,-15.83 z m -83.69,35.086 c -25.007,0 -45.294,-20.304 -45.294,-45.328 0,-24.958 20.288,-45.246 45.294,-45.246 24.991,0 45.278,20.288 45.278,45.246 0,25.024 -20.287,45.328 -45.278,45.328 z" id="path28" style="fill:url(#SVGID_2_)"/></g></svg>