<?xml version="1.0" encoding="utf-8"?>
<!-- Generator: Adobe Illustrator 15.0.0, SVG Export Plug-In . SVG Version: 6.00 Build 0)  -->
<!DOCTYPE svg PUBLIC "-//W3C//DTD SVG 1.1//EN" "http://www.w3.org/Graphics/SVG/1.1/DTD/svg11.dtd">
<!--
<svg version="1.1" id="Layer_1" xmlns="http://www.w3.org/2000/svg" xmlns:xlink="http://www.w3.org/1999/xlink" x="0px" y="0px"
	 width="512px" height="512px" viewBox="0 0 512 512" enable-background="new 0 0 512 512" xml:space="preserve">ve">
	 
<g transform="translate(0,0) scale(4.2666667,4.2666667)">
	<path fill="#007DC3" d="M120,108c0,6.6-5.4,12-12,12H12c-6.6,0-12-5.4-12-12V12C0,5.4,5.4,0,12,0h96c6.6,0,12,5.4,12,12V108z"/>
</g>
-->

<svg version="1.1" id="Layer_1" xmlns="http://www.w3.org/2000/svg" xmlns:xlink="http://www.w3.org/1999/xlink" x="0px" y="0px"
	 width="120px" height="120px" viewBox="0 0 120 120" enable-background="new 0 0 120 120" xml:space="preserve">
<g>
	<path fill="#007DC3" d="M120,108c0,6.6-5.4,12-12,12H12c-6.6,0-12-5.4-12-12V12C0,5.4,5.4,0,12,0h96c6.6,0,12,5.4,12,12V108z"/>
</g>

<g>
<path fill="#FFFFFF" d="M23.873,24h72c2.209,0,4,1.791,4,4v64c0,2.209-1.791,3.999-4,3.999h-72c-2.209,0-4-1.79-4-3.999V28
	C19.873,25.792,21.664,24,23.873,24z"/>
</g>

<g transform="translate(30.0, 34.0)">
	<rect fill="#007DC3" width="60" height="7"/>
</g>
<g transform="translate(30.0, 48.0)">
	<rect fill="#007DC3" width="60" height="7"/>
</g>
<g transform="translate(30.0, 62.0)">
	<rect fill="#007DC3" width="60" height="7"/>
</g>
<g transform="translate(30.0, 76.0)">
	<rect fill="#007DC3" width="60" height="7"/>
</g>

<g transform="translate(37.0, 41.0)">
	<rect fill="#FFFFFF" width="6" height="50"/>
</g>

<!--
<g transform="translate(75.0000, 80.0000)">
	<rect fill="#FFFFFF" width="362" height="352"/>
</g>

<g>
<path fill="#FFFFFF" d="M23.873,24h72c2.209,0,4,1.791,4,4v64c0,2.209-1.791,3.999-4,3.999h-72c-2.209,0-4-1.79-4-3.999V28
	C19.873,25.792,21.664,24,23.873,24z"/>
</g>

<g transform="translate(95.0000, 125.0000)">
	<rect fill="#007DC3" width="322" height="40"/>
</g>

<g transform="translate(95.0000, 195.0000)">
	<rect fill="#007DC3" width="322" height="40"/>
</g>

<g transform="translate(95.0000, 265.0000)">
	<rect fill="#007DC3" width="322" height="40"/>
</g>

<g transform="translate(95.0000, 335.0000)">
	<rect fill="#007DC3" width="322" height="40"/>
</g>

<g transform="translate(135.0000, 165.0000)">
	<rect fill="#FFFFFF" width="40" height="250"/>
</g>

-->

<!--
<g>
	<g>
		<g id="list" transform="translate(423.000000, 301.000000) scale(0.5,0.5)">
			<g>
				<path fill="#007DC3" d="M-423-50.813h50v-49.906h-50V-50.813L-423-50.813z M-423,49h50V-0.906h-50V49L-423,49z M-423-150.625h50
					v-49.906h-50V-150.625L-423-150.625z M-323-50.813H27v-49.906h-350V-50.813L-323-50.813z M-323,49H27V-0.906h-350V49L-323,49z
					 M-323-200.531v49.906H27v-49.906H-323L-323-200.531z"/>
			</g>
		</g>
		<rect fill="#007DC3" width="450" height="47.465"/>
	</g>
	<line fill="none" x1="151.246" y1="99.07" x2="294.229" y2="99.07"/>
</g>
-->
</svg>
