<?xml version="1.0" encoding="utf-8"?>
<!-- Generator: Adobe Illustrator 16.0.0, SVG Export Plug-In . SVG Version: 6.00 Build 0)  -->
<!DOCTYPE svg PUBLIC "-//W3C//DTD SVG 1.1//EN" "http://www.w3.org/Graphics/SVG/1.1/DTD/svg11.dtd">
<svg version="1.1" id="Layer_1" xmlns="http://www.w3.org/2000/svg" xmlns:xlink="http://www.w3.org/1999/xlink" x="0px" y="0px"
	 width="120px" height="120px" viewBox="0 0 120 120" enable-background="new 0 0 120 120" xml:space="preserve">
<g>
	<path fill="#B0B0AF" d="M120,108c0,6.6-5.4,12-12,12H12c-6.6,0-12-5.4-12-12V12C0,5.4,5.4,0,12,0h96c6.6,0,12,5.4,12,12V108z"/>
</g>

<g transform="translate(20,20) scale(0.34782608695652,0.34782608695652)">
	<path style="fill:#ffffff; stroke:none;" d="M0 0L0 230L230 230L230 0L0 0z"/>
	<path style="fill:#000000; stroke:none;" d="M10 10L10 80L80 80L80 10L10 10M90 10L90 50L130 50L130 60L120 60L120 70L110 70L110 60L90 60L90 80L100 80L100 100L80 100L80 90L50 90L50 110L40 110L40 120L30 120L30 110L10 110L10 120L20 120L20 130L30 130L30 140L40 140L40 130L50 130L50 110L70 110L70 120L80 120L80 130L60 130L60 140L90 140L90 150L100 150L100 140L110 140L110 170L100 170L100 160L90 160L90 180L120 180L120 190L110 190L110 200L90 200L90 220L120 220L120 200L130 200L130 190L140 190L140 180L170 180L170 200L160 200L160 190L150 190L150 200L140 200L140 210L130 210L130 220L170 220L170 210L180 210L180 220L190 220L190 210L180 210L180 200L190 200L190 190L180 190L180 170L170 170L170 160L180 160L180 150L190 150L190 160L200 160L200 190L220 190L220 180L210 180L210 150L220 150L220 140L180 140L180 100L200 100L200 120L210 120L210 100L220 100L220 90L180 90L180 100L170 100L170 90L160 90L160 100L170 100L170 160L160 160L160 140L150 140L150 120L160 120L160 110L150 110L150 120L140 120L140 130L130 130L130 160L120 160L120 140L110 140L110 130L100 130L100 110L120 110L120 120L130 120L130 110L140 110L140 100L130 100L130 90L140 90L140 70L130 70L130 60L140 60L140 50L130 50L130 40L100 40L100 20L110 20L110 30L120 30L120 20L130 20L130 30L140 30L140 10L90 10M150 10L150 80L220 80L220 10L150 10z"/>
	<path style="fill:#ffffff; stroke:none;" d="M20 20L20 70L70 70L70 20L20 20M160 20L160 70L210 70L210 20L160 20z"/>
	<path style="fill:#000000; stroke:none;" d="M30 30L30 60L60 60L60 30L30 30M170 30L170 60L200 60L200 30L170 30z"/>
	<path style="fill:#ffffff; stroke:none;" d="M100 70L100 80L110 80L110 70L100 70M120 70L120 80L130 80L130 70L120 70z"/>
	<path style="fill:#000000; stroke:none;" d="M10 90L10 100L30 100L30 90L10 90z"/>
	<path style="fill:#ffffff; stroke:none;" d="M110 90L110 100L120 100L120 90L110 90M70 100L70 110L80 110L80 120L90 120L90 110L80 110L80 100L70 100M90 130L90 140L100 140L100 130L90 130M140 140L140 150L150 150L150 140L140 140z"/>
	<path style="fill:#000000; stroke:none;" d="M10 150L10 220L80 220L80 150L10 150z"/>
	<path style="fill:#ffffff; stroke:none;" d="M20 160L20 210L70 210L70 160L20 160M140 160L140 170L130 170L130 180L140 180L140 170L160 170L160 160L140 160z"/>
	<path style="fill:#000000; stroke:none;" d="M30 170L30 200L60 200L60 170L30 170M210 210L210 220L220 220L220 210L210 210z"/>
</g>

</svg>
