<?xml version="1.0" encoding="UTF-8"?>
<!DOCTYPE svg PUBLIC "-//W3C//DTD SVG 1.1//EN" "http://www.w3.org/Graphics/SVG/1.1/DTD/svg11.dtd">
<!-- Creator: CorelDRAW -->
<svg xmlns="http://www.w3.org/2000/svg" xml:space="preserve" width="120px" height="120px" style="shape-rendering:geometricPrecision; text-rendering:geometricPrecision; image-rendering:optimizeQuality; fill-rule:evenodd; clip-rule:evenodd"
viewBox="0 0 120 120"
 xmlns:xlink="http://www.w3.org/1999/xlink">
 <defs>
  <style type="text/css">
   <![CDATA[
    .fil4 {fill:#D27A10}
    .fil2 {fill:#EF951D}
    .fil0 {fill:#F3AE4E}
    .fil3 {fill:#FDC87C}
    .fil1 {fill:white}

   ]]>
  </style>
 </defs>

<g>
	<path fill="#F3AE4E" d="M120,108c0,6.6-5.4,12-12,12H12c-6.6,0-12-5.4-12-12V12C0,5.4,5.4,0,12,0h96c6.6,0,12,5.4,12,12V108z"/>
</g>

 
 <g id="Layer_x0020_1">
  <metadata id="CorelCorpID_0Corel-Layer"/>
  <g id="_184136528">
  <!--
   <rect id="_184140872" class="fil0" x="-0.000129866" y="-0.000129866" width="120" height="120" rx="4.65472" ry="4.65472"/>
   -->
   <g>
    <path id="_184136744" class="fil1" d="M22.6559 34.3677l49.5177 0c1.7752,0 3.22677,1.45157 3.22677,3.22677l0 24.4984c-3.12402,3.00118 -5.06929,7.22126 -5.06929,11.8949 0,4.67362 1.94528,8.8937 5.06929,11.8949l0 0.887008c0,1.7752 -1.45157,3.22677 -3.22677,3.22677l-49.5177 0c-1.7752,0 -3.22677,-1.45157 -3.22677,-3.22677l0 -49.1752c0,-1.7752 1.45157,-3.22677 3.22677,-3.22677z"/>
    <g>
     <rect id="_184137296" class="fil2" x="29.1071" y="46.1728" width="36.9347" height="6.30709"/>
     <rect id="_184136792" class="fil2" x="29.1071" y="72.0461" width="36.9347" height="6.30709"/>
     <rect id="_30900200" class="fil2" x="29.1071" y="59.1094" width="36.9347" height="6.30709"/>
    </g>
    <circle id="_184137392" class="fil1" cx="86.8265" cy="73.9865" r="13.7444"/>
    <circle id="_184137752" class="fil2" cx="86.8262" cy="73.9866" r="10.9951"/>
    <path id="_184138088" class="fil3" d="M33.6236 23.3717l49.5177 0c1.7752,0 3.22677,1.45157 3.22677,3.22677l0 24.4984 0 6.40276c-4.25433,0.115748 -8.10472,1.8437 -10.9677,4.59331l0 -24.4984c0,-1.7752 -1.45157,-3.22677 -3.22677,-3.22677l-41.7768 0 0 -7.76929c0,-1.7752 1.45157,-3.22677 3.22677,-3.22677zm37.0606 47.2075c0.0496063,-0.237402 0.105118,-0.473622 0.165354,-0.706299 -0.0602362,0.232677 -0.114567,0.468898 -0.165354,0.706299z"/>
    <rect id="_184141664" class="fil1" x="37.3358" y="92.4236" width="5.60321" height="4.20472"/>
    <rect id="_184138736" class="fil1" x="45.3401" y="92.4236" width="5.60321" height="4.20472"/>
    <rect id="_184147376" class="fil1" x="53.3444" y="92.4236" width="5.60321" height="4.20472"/>
    <path id="_184147544" class="fil1" d="M88.7504 75.4016l-1.61102 4.36417c-0.121654,0.328346 -0.153543,0.612992 -0.153543,0.832677 0,0.496063 0.284646,0.744094 0.855118,0.744094 0.525591,0 1.14685,-0.225591 1.8626,-0.679134 0.32126,-0.218504 0.649606,-0.438189 0.98622,-0.656693l0.174803 0.218504c-1.26732,1.09606 -2.67283,1.64409 -4.21417,1.64409 -0.877559,0 -1.56378,-0.13937 -2.06811,-0.416929 -0.499606,-0.277559 -0.752362,-0.664961 -0.752362,-1.16102 0,-0.175984 0.011811,-0.314173 0.0330709,-0.416929 0.0224409,-0.101575 0.0767717,-0.291732 0.164173,-0.569291l0.885827 -2.43189 -0.0129921 0.00354331 1.61102 -4.36417c0.121654,-0.329528 0.153543,-0.612992 0.153543,-0.832677 0,-0.496063 -0.284646,-0.745276 -0.855118,-0.745276 -0.525591,0 -1.15157,0.219685 -1.8626,0.680315 -0.325984,0.211417 -0.649606,0.438189 -0.98622,0.656693l-0.174803 -0.218504c1.26732,-1.09606 2.67283,-1.64409 4.21417,-1.64409 0.877559,0 1.56378,0.138189 2.06811,0.416929 0.499606,0.276378 0.752362,0.66378 0.752362,1.16102 0,0.175984 -0.011811,0.314173 -0.0330709,0.416929 -0.0224409,0.101575 -0.0649606,0.296457 -0.164173,0.569291l-0.885827 2.43071 0.0129921 -0.0023622zm-0.172441 -9.29764c0.525591,0 0.967323,0.179528 1.3252,0.537402 0.357874,0.357874 0.537402,0.79252 0.537402,1.30394 0,0.511417 -0.175984,0.94252 -0.526772,1.29331 -0.350787,0.350787 -0.796063,0.525591 -1.33583,0.525591 -0.511417,0 -0.94252,-0.174803 -1.29331,-0.525591 -0.350787,-0.350787 -0.525591,-0.78189 -0.525591,-1.29331 0,-0.525591 0.174803,-0.96378 0.525591,-1.31457 0.350787,-0.350787 0.78189,-0.526772 1.29331,-0.526772z"/>
   </g>
  </g>
 </g>
</svg>
