<?xml version="1.0" standalone="no"?>
<!DOCTYPE svg PUBLIC "-//W3C//DTD SVG 20010904//EN"
 "http://www.w3.org/TR/2001/REC-SVG-20010904/DTD/svg10.dtd">
<svg version="1.0" xmlns="http://www.w3.org/2000/svg"
 width="100.000000pt" height="100.000000pt" viewBox="0 0 100.000000 100.000000"
 preserveAspectRatio="xMidYMid meet">
<metadata>
Created by potrace 1.11, written by Peter Selinger 2001-2013
</metadata>
<g transform="translate(0.000000,100.000000) scale(0.100000,-0.100000)"
fill="#000000" stroke="none">
<path d="M330 900 l0 -70 100 0 100 0 0 70 0 70 -100 0 -100 0 0 -70z"/>
<path d="M420 775 l0 -45 -145 0 -145 0 0 -64 0 -65 -48 -3 -47 -3 -3 -72 -3
-73 101 0 100 0 0 75 0 75 -45 0 -45 0 0 55 0 55 285 0 285 0 0 -55 0 -55 -45
0 -45 0 0 -75 0 -75 45 0 45 0 0 -50 0 -50 -75 0 -75 0 0 -90 0 -90 -45 0 -45
0 0 -70 0 -70 100 0 100 0 0 70 0 70 -45 0 -45 0 0 80 0 80 140 0 140 0 0 -80
0 -80 -50 0 -50 0 0 -70 0 -70 100 0 100 0 0 70 0 70 -40 0 -40 0 0 90 0 90
-75 0 -75 0 0 50 0 50 45 0 45 0 0 75 0 75 -45 0 -45 0 0 65 0 65 -145 0 -145
0 0 45 c0 25 -4 45 -10 45 -5 0 -10 -20 -10 -45z"/>
<path d="M132 163 c54 -2 142 -2 196 0 53 1 9 3 -98 3 -107 0 -151 -2 -98 -3z"/>
<path d="M208 93 c39 -2 105 -2 145 0 39 1 7 3 -73 3 -80 0 -112 -2 -72 -3z"/>
<path d="M263 33 c32 -2 81 -2 110 0 29 2 3 3 -58 3 -60 0 -84 -1 -52 -3z"/>
</g>
</svg>
