<svg width="120" height="120" xmlns="http://www.w3.org/2000/svg" xmlns:svg="http://www.w3.org/2000/svg">
 <g>
  <title>Layer 1</title>
  <g stroke="null" id="svg_1">
   <g stroke="null" id="svg_2">
    <linearGradient transform="translate(1.100000023841858,0.500029981136322) scale(1.0925925970077515,1.1018519401550293) translate(-1.100000023841858,-0.500029981136322) " stroke="null" id="SVGID_1_" x1="0.50033" y1="0.99964" x2="0.50033" y2="-0.00037">
     <stop stroke="null" offset="0" stop-color="#9B4123"/>
     <stop stroke="null" offset="0.03801" stop-color="#A24424"/>
     <stop stroke="null" offset="0.1742" stop-color="#B34F27"/>
     <stop stroke="null" offset="0.3366" stop-color="#BF5829"/>
     <stop stroke="null" offset="0.5489" stop-color="#C75D2B"/>
     <stop stroke="null" offset="1" stop-color="#C95E2B"/>
    </linearGradient>
    <path stroke="null" fill="url(#SVGID_1_)" d="m119.10001,107.60002c0,6.50092 -5.35371,11.89999 -11.8,11.89999l-94.40001,0c-6.44631,0 -11.8,-5.39906 -11.8,-11.89999l0,-95.19999c0,-6.50093 5.35369,-11.9 11.8,-11.9l94.40001,0c6.44628,0 11.8,5.39907 11.8,11.9l0,95.19999z" id="svg_3"/>
   </g>
   <g stroke="null" id="svg_4">
    <rect stroke="#FFFFFF" x="17.37963" y="19.01111" fill="none" stroke-width="1.905" stroke-miterlimit="10" width="20.1037" height="10.35741" id="svg_5"/>
    <rect stroke="#FFFFFF" x="31.69259" y="38.4037" fill="none" stroke-width="1.905" stroke-miterlimit="10" width="20.65" height="10.35741" id="svg_6"/>
    <rect stroke="#FFFFFF" x="21.09444" y="58.78796" fill="none" stroke-width="2.1317" stroke-miterlimit="10" width="28.40741" height="9.03519" id="svg_7"/>
    <rect stroke="#FFFFFF" x="13.33704" y="76.74815" fill="none" stroke-width="1.905" stroke-miterlimit="10" width="18.13704" height="9.14537" id="svg_8"/>
    <rect stroke="#FFFFFF" x="40.21481" y="76.74815" fill="none" stroke-width="1.905" stroke-miterlimit="10" width="18.13704" height="9.14537" id="svg_9"/>
    <ellipse stroke="#FFFFFF" fill="none" stroke-width="1.905" stroke-miterlimit="10" cx="22.2963" cy="99.33612" rx="8.95926" ry="4.84815" id="svg_10"/>
    <ellipse stroke="#FFFFFF" fill="none" stroke-width="1.905" stroke-miterlimit="10" cx="49.72037" cy="99.33612" rx="8.95926" ry="4.84815" id="svg_11"/>
    <ellipse stroke="#FFFFFF" fill="none" stroke-width="1.905" stroke-miterlimit="10" cx="70.26111" cy="43.47222" rx="8.95926" ry="4.84815" id="svg_12"/>
    <ellipse stroke="#FFFFFF" fill="none" stroke-width="1.905" stroke-miterlimit="10" cx="98.01296" cy="43.47222" rx="8.95926" ry="4.84815" id="svg_13"/>
    <path stroke="#FFFFFF" fill="none" stroke-width="1.905" stroke-miterlimit="10" d="m105.33334,21.65557c0,3.19537 -4.91667,5.8398 -10.92593,5.8398c-6.00926,0 -10.92593,-2.64443 -10.92593,-5.8398c0,-3.30556 4.91666,-5.8398 10.92593,-5.8398c6.00925,-0.00003 10.92593,2.64441 10.92593,5.8398z" id="svg_14"/>
    <g stroke="null" id="svg_15">
     <g stroke="null" id="svg_16">
      <polyline stroke="#FFFFFF" fill="none" stroke-width="1.4287" stroke-miterlimit="10" points="38.35740422142875,24.4101974980683 45.02222573183202,24.4101974980683 45.02222573183202,34.21667304027753 " id="svg_17"/>
      <g stroke="null" id="svg_18">
       <path stroke="null" fill="#FFFFFF" d="m45.02222,37.52223c-0.5463,-1.54259 -1.52962,-3.52595 -2.62221,-4.73795l2.62221,0.99165l2.62223,-0.99165c-0.98334,1.212 -1.96668,3.19535 -2.62223,4.73795z" id="svg_19"/>
      </g>
     </g>
    </g>
    <g stroke="null" id="svg_20">
     <g stroke="null" id="svg_21">
      <line stroke="#FFFFFF" fill="none" stroke-width="1.4287" stroke-miterlimit="10" x1="23.93519" y1="29.69907" x2="23.93519" y2="54.27037" id="svg_22"/>
      <g stroke="null" id="svg_23">
       <path stroke="null" fill="#FFFFFF" d="m23.93518,57.6861c-0.5463,-1.54258 -1.52962,-3.52593 -2.62221,-4.73794l2.62221,0.99165l2.62221,-0.99165c-1.09259,1.21203 -2.07591,3.08516 -2.62221,4.73794z" id="svg_24"/>
      </g>
     </g>
    </g>
    <g stroke="null" id="svg_25">
     <g stroke="null" id="svg_26">
      <line stroke="#FFFFFF" fill="none" stroke-width="1.4287" stroke-miterlimit="10" x1="45.8963" y1="49.09167" x2="45.8963" y2="54.27037" id="svg_27"/>
      <g stroke="null" id="svg_28">
       <path stroke="null" fill="#FFFFFF" d="m45.89631,57.6861c-0.5463,-1.54258 -1.52963,-3.52593 -2.62223,-4.73794l2.62223,0.99165l2.62221,-0.99165c-1.09259,1.21203 -2.07592,3.08516 -2.62221,4.73794z" id="svg_29"/>
      </g>
     </g>
    </g>
    <g stroke="null" id="svg_30">
     <g stroke="null" id="svg_31">
      <line stroke="#FFFFFF" fill="none" stroke-width="1.4287" stroke-miterlimit="10" x1="23.49815" y1="68.81482" x2="23.49815" y2="73.11204" id="svg_32"/>
      <g stroke="null" id="svg_33">
       <path stroke="null" fill="#FFFFFF" d="m23.49816,76.41758c-0.5463,-1.54258 -1.52963,-3.52592 -2.62222,-4.73792l2.62222,0.99165l2.62221,-0.99165c-1.09259,1.21204 -2.07592,3.19535 -2.62221,4.73792z" id="svg_34"/>
      </g>
     </g>
    </g>
    <g stroke="null" id="svg_35">
     <g stroke="null" id="svg_36">
      <line stroke="#FFFFFF" fill="none" stroke-width="1.4287" stroke-miterlimit="10" x1="46.33333" y1="67.93334" x2="46.33333" y2="73.11204" id="svg_37"/>
      <g stroke="null" id="svg_38">
       <path stroke="null" fill="#FFFFFF" d="m46.33333,76.41758c-0.5463,-1.54258 -1.52962,-3.52592 -2.62221,-4.73792l2.62221,0.99165l2.62221,-0.99165c-1.09259,1.21204 -2.07591,3.19535 -2.62221,4.73792z" id="svg_39"/>
      </g>
     </g>
    </g>
    <g stroke="null" id="svg_40">
     <g stroke="null" id="svg_41">
      <line stroke="#FFFFFF" fill="none" stroke-width="1.4287" stroke-miterlimit="10" x1="23.93519" y1="86.66482" x2="23.93519" y2="90.96204" id="svg_42"/>
      <g stroke="null" id="svg_43">
       <path stroke="null" fill="#FFFFFF" d="m23.93518,94.26761c-0.5463,-1.54259 -1.52962,-3.52596 -2.62221,-4.73796l2.62221,0.99165l2.62221,-0.99165c-0.98332,1.212 -1.96664,3.19535 -2.62221,4.73796z" id="svg_44"/>
      </g>
     </g>
    </g>
    <g stroke="null" id="svg_45">
     <g stroke="null" id="svg_46">
      <line stroke="#FFFFFF" fill="none" stroke-width="1.4287" stroke-miterlimit="10" x1="46.87963" y1="85.78334" x2="46.87963" y2="90.96204" id="svg_47"/>
      <g stroke="null" id="svg_48">
       <path stroke="null" fill="#FFFFFF" d="m46.87963,94.26761c-0.5463,-1.54259 -1.52962,-3.52596 -2.62221,-4.73796l2.62221,0.99165l2.62221,-0.99165c-1.09259,1.212 -2.07592,3.19535 -2.62221,4.73796z" id="svg_49"/>
      </g>
     </g>
    </g>
    <g stroke="null" id="svg_50">
     <g stroke="null" id="svg_51">
      <polyline stroke="#FFFFFF" fill="none" stroke-width="1.4287" stroke-miterlimit="10" points="58.78888245114571,80.71480473930816 98.55924631357188,80.71480473930816 98.55924631357188,52.83796410372699 " id="svg_52"/>
      <g stroke="null" id="svg_53">
       <path stroke="null" fill="#FFFFFF" d="m98.55925,49.53241c0.5463,1.54258 1.52962,3.52593 2.62222,4.73795l-2.62222,-0.99167l-2.62223,0.99167c0.98334,-1.3222 1.96671,-3.19537 2.62223,-4.73795z" id="svg_54"/>
      </g>
     </g>
    </g>
    <g stroke="null" id="svg_55">
     <g stroke="null" id="svg_56">
      <line stroke="#FFFFFF" fill="none" stroke-width="1.4287" stroke-miterlimit="10" x1="52.77963" y1="44.02315" x2="56.93148" y2="44.02315" id="svg_57"/>
      <g stroke="null" id="svg_58">
       <path stroke="null" fill="#FFFFFF" d="m60.20926,44.02315c-1.52963,0.55093 -3.4963,1.54258 -4.69816,2.64444l0.98334,-2.64444l-0.98334,-2.64443c1.31113,0.99165 3.16853,1.98331 4.69816,2.64443z" id="svg_59"/>
      </g>
     </g>
    </g>
    <g stroke="null" id="svg_60">
     <g stroke="null" id="svg_61">
      <line stroke="#FFFFFF" fill="none" stroke-width="1.4287" stroke-miterlimit="10" x1="80.31296" y1="43.58241" x2="84.90185" y2="43.58241" id="svg_62"/>
      <g stroke="null" id="svg_63">
       <path stroke="null" fill="#FFFFFF" d="m88.17962,43.58242c-1.52963,0.55093 -3.49629,1.54258 -4.69814,2.64443l0.98331,-2.64443l-0.98331,-2.64445c1.20187,1.10185 3.1685,2.09352 4.69814,2.64445z" id="svg_64"/>
      </g>
     </g>
    </g>
    <g stroke="null" id="svg_65">
     <g stroke="null" id="svg_66">
      <line stroke="#FFFFFF" fill="none" stroke-width="1.4287" stroke-miterlimit="10" x1="98.55926" y1="27.05463" x2="98.55926" y2="33.88611" id="svg_67"/>
      <g stroke="null" id="svg_68">
       <path stroke="null" fill="#FFFFFF" d="m98.55925,37.30184c-0.5463,-1.54258 -1.52963,-3.52594 -2.62223,-4.73794l2.62223,0.99165l2.62222,-0.99165c-1.09256,1.21204 -2.07592,3.08516 -2.62222,4.73794z" id="svg_69"/>
      </g>
     </g>
    </g>
   </g>
  </g>
 </g>
</svg>