<svg width="120" height="120" xmlns="http://www.w3.org/2000/svg" xmlns:svg="http://www.w3.org/2000/svg">
 <g>
  <title>Layer 1</title>
  <g stroke="null" id="svg_1">
   <g stroke="null" id="svg_2">
    <path stroke="null" fill="#2D3C51" d="m120.7,107.29999c0,6.44629 -5.44444,11.8 -12,11.8l-95.99999,0c-6.55557,0 -12.00001,-5.35371 -12.00001,-11.8l0,-94.40001c0,-6.4463 5.44444,-11.79999 12.00001,-11.79999l95.99999,0c6.55556,0 12,5.35369 12,11.79999l0,94.40001z" id="svg_3"/>
   </g>
  </g>
  <path fill="#FFFFFF" d="m22.5,16.3c20,19.7 33.59999,32.49999 65.60001,32.49999l0,-7.5l15.6,20.80002l-15.6,18.5l0,-8.70004c0,-0.1 -57.30001,-15.19998 -65.60001,-55.59999l0,0.00001z" id="svg_10"/>
  <path fill="#A1ACBA" d="m18.5,104.29999c17.89999,-17.60001 34.09999,-30 64.89999,-29.60001l0,6.7l11.9,-18.09998l-11.5,-14.10001l0,7.80002c0.1,0.20001 -51.69999,6.20001 -65.29999,47.29999z" id="svg_11"/>
 </g>
</svg>