<?xml version="1.0" encoding="UTF-8"?>
<!DOCTYPE svg PUBLIC "-//W3C//DTD SVG 1.1//EN" "http://www.w3.org/Graphics/SVG/1.1/DTD/svg11.dtd">
<!-- Creator: CorelDRAW -->
<svg xmlns="http://www.w3.org/2000/svg" xml:space="preserve" width="120px" height="120px" style="shape-rendering:geometricPrecision; text-rendering:geometricPrecision; image-rendering:optimizeQuality; fill-rule:evenodd; clip-rule:evenodd"
viewBox="0 0 120 120"
 xmlns:xlink="http://www.w3.org/1999/xlink">
 <defs>
  <style type="text/css">
   <![CDATA[
    .fil0 {fill:#4AB471}
    .fil2 {fill:#4AB471}
    .fil1 {fill:white}
   ]]>
  </style>
 </defs>
 <g id="Layer_x0020_1">
  <metadata id="CorelCorpID_0Corel-Layer"/>
  <g id="_159992800">
   <path id="_159584464" class="fil0" d="M11.8346 0l96.3307 0c6.50906,0 11.8346,5.32559 11.8346,11.8346l0 96.3307c0,6.50906 -5.32559,11.8346 -11.8346,11.8346l-96.3307 0c-6.50906,0 -11.8346,-5.32559 -11.8346,-11.8346l0 -96.3307c0,-6.50906 5.32559,-11.8346 11.8346,-11.8346z"/>
   <g>
    <path id="_159955552" class="fil1" d="M43.0217 61.9854c0,0 16.0807,2.48504 16.0807,19.8921l33.2835 0c0,0 4.32047,0.32126 4.32047,-4.25079 0,-4.57205 0,-47.2441 0,-47.2441 0,0 -0.32126,-3.85157 -3.68031,-3.85157 -3.35906,0 -46.8047,0 -46.8047,0 0,0 -3.36024,0.32126 -3.36024,4.01102 0,3.68976 0,30.6413 0,30.6413l0.16063 0.801969z"/>
    <path id="_159954424" class="fil1" d="M39.3709 65.5949c-8.87835,0 -16.0772,7.19882 -16.0772,16.0772 0,8.87953 7.19882,16.0783 16.0772,16.0783 8.87953,0 16.0783,-7.19882 16.0783,-16.0783 0,-8.87835 -7.19882,-16.0772 -16.0783,-16.0772z"/>
    <path id="_159957544" class="fil2" d="M88.813 67.9016l-29.5193 0c-0.726378,0 -1.32638,0.6 -1.32638,1.32638l0 0.635433c0,0.729921 0.597638,1.32638 1.32638,1.32638l29.5193 0c0.72874,0 1.32638,-0.594094 1.32638,-1.32638l0 -0.635433c0,-0.72874 -0.598819,-1.32638 -1.32638,-1.32638z"/>
    <path id="_160049616" class="fil2" d="M88.813 57.8752l-29.5193 0c-0.726378,0 -1.32638,0.6 -1.32638,1.32638l0 0.635433c0,0.729921 0.597638,1.32638 1.32638,1.32638l29.5193 0c0.72874,0 1.32638,-0.594094 1.32638,-1.32638l0 -0.635433c0,-0.72874 -0.598819,-1.32638 -1.32638,-1.32638z"/>
    <path id="_160049328" class="fil2" d="M52.9453 56.1543l-3.77008 0c-0.725197,0 -1.32638,0.601181 -1.32638,1.32638l0 3.93661c0,0.725197 0.596457,1.32638 1.32638,1.32638l3.77008 0c0.729921,0 1.32638,-0.596457 1.32638,-1.32638l0 -3.93661c0,-0.729921 -0.598819,-1.32638 -1.32638,-1.32638z"/>
    <polygon id="_160049544" class="fil2" points="33.0886,84.0768 31.7528,92.5299 39.0531,88.9217 46.3535,92.4272 45.326,84.489 50.5701,78.5091 43.1657,77.0657 38.9504,70.2626 35.2488,77.0657 27.4335,78.613 "/>
    <path id="_160049232" class="fil2" d="M88.813 37.422l-29.5193 0c-0.726378,0 -1.32638,0.6 -1.32638,1.32638l0 0.635433c0,0.729921 0.597638,1.32638 1.32638,1.32638l29.5193 0c0.72874,0 1.32638,-0.594094 1.32638,-1.32638l0 -0.635433c0,-0.72874 -0.598819,-1.32638 -1.32638,-1.32638z"/>
    <path id="_160049352" class="fil2" d="M52.9453 35.7012l-3.77008 0c-0.725197,0 -1.32638,0.601181 -1.32638,1.32638l0 3.93661c0,0.725197 0.596457,1.32638 1.32638,1.32638l3.77008 0c0.729921,0 1.32638,-0.596457 1.32638,-1.32638l0 -3.93661c0,-0.729921 -0.598819,-1.32638 -1.32638,-1.32638z"/>
    <path id="_160049568" class="fil2" d="M88.813 47.2878l-29.5193 0c-0.726378,0 -1.32638,0.6 -1.32638,1.32638l0 0.635433c0,0.729921 0.597638,1.32638 1.32638,1.32638l29.5193 0c0.72874,0 1.32638,-0.594094 1.32638,-1.32638l0 -0.635433c0,-0.72874 -0.598819,-1.32638 -1.32638,-1.32638z"/>
    <path id="_160049112" class="fil2" d="M52.9453 45.5669l-3.77008 0c-0.725197,0 -1.32638,0.601181 -1.32638,1.32638l0 3.93661c0,0.725197 0.596457,1.32638 1.32638,1.32638l3.77008 0c0.729921,0 1.32638,-0.596457 1.32638,-1.32638l0 -3.93661c0,-0.729921 -0.598819,-1.32638 -1.32638,-1.32638z"/>
   </g>
  </g>
 </g>
</svg>