<?xml version="1.0" encoding="UTF-8"?>
<!DOCTYPE svg PUBLIC "-//W3C//DTD SVG 1.1//EN" "http://www.w3.org/Graphics/SVG/1.1/DTD/svg11.dtd">
<!-- Creator: CorelDRAW -->
<svg xmlns="http://www.w3.org/2000/svg" xml:space="preserve" width="120px" height="120px" style="shape-rendering:geometricPrecision; text-rendering:geometricPrecision; image-rendering:optimizeQuality; fill-rule:evenodd; clip-rule:evenodd"
viewBox="0 0 120 120"
 xmlns:xlink="http://www.w3.org/1999/xlink">
 <defs>
  <style type="text/css">
   <![CDATA[
    .fil4 {fill:#7F8DE1}
    .fil2 {fill:#6570B2}
    .fil0 {fill:#7F8DE1}
    .fil3 {fill:#F3AE4E}
    .fil1 {fill:white}
   ]]>
  </style>
 </defs>
 <g id="Layer_x0020_1">
  <metadata id="CorelCorpID_0Corel-Layer"/>
  <path class="fil0" d="M11.8346 0l96.3307 0c6.50906,0 11.8346,5.32559 11.8346,11.8346l0 96.3307c0,6.50906 -5.32559,11.8346 -11.8346,11.8346l-96.3307 0c-6.50906,0 -11.8346,-5.32559 -11.8346,-11.8346l0 -96.3307c0,-6.50906 5.32559,-11.8346 11.8346,-11.8346z"/>
  <g id="_159861584">
   <circle id="_159954208" class="fil1" cx="39.2799" cy="81.0603" r="18.6366"/>
   <path id="_160311376" class="fil2" d="M39.1335 25.7882l-0.222047 0c-1.1752,0 -2.14134,0.966142 -2.14134,2.14134l0 30.6957c0.823228,-0.0909449 1.66181,-0.140551 2.50984,-0.140551 0.672047,0 1.33701,0.0307087 1.9937,0.0885827l0 -30.6437c0,-1.17756 -0.964961,-2.14134 -2.14016,-2.14134z"/>
   <path id="_160310392" class="fil1" d="M30.5776 25.5354l-6.82441 0c-2.01496,0 -3.66496,1.65 -3.66496,3.66496l0 39.972c3.1311,-5.04331 8.19449,-8.7626 14.1543,-10.122l0 -29.85c0,-2.01614 -1.65,-3.66496 -3.66496,-3.66496z"/>
   <path id="_160312456" class="fil2" d="M68.7059 35.3929l-0.222047 0c-1.1752,0 -2.14134,0.966142 -2.14134,2.14134l0 60.098c0,1.1752 0.962598,2.14016 2.14134,2.14016l0.222047 0c1.17756,0 2.14016,-0.962598 2.14016,-2.14016l0 -60.098c0,-1.17756 -0.964961,-2.14134 -2.14016,-2.14134z"/>
   <path id="_160310176" class="fil1" d="M60.15 35.1402l-6.82441 0c-2.01496,0 -3.66496,1.65 -3.66496,3.66496l0 22.2047c7.24488,3.75827 12.1961,11.3268 12.1961,20.0504 0,7.64882 -3.80433,14.4083 -9.62362,18.4913 0.346063,0.108661 0.712205,0.167717 1.09252,0.167717l6.82441 0c2.01614,0 3.66496,-1.64882 3.66496,-3.66496l0 -57.2492c0,-2.01614 -1.65,-3.66496 -3.66496,-3.66496z"/>
   <path id="_160311184" class="fil2" d="M97.7728 20.4803l-0.222047 0c-1.17638,0 -2.14134,0.964961 -2.14134,2.14134l0 75.0106c0,1.17638 0.962598,2.14016 2.14134,2.14016l0.222047 0c1.17756,0 2.14016,-0.962598 2.14016,-2.14016l0 -75.0106c0,-1.17756 -0.96378,-2.14134 -2.14016,-2.14134z"/>
   <path id="_159954448" class="fil1" d="M89.2169 20.2276l-6.82441 0c-2.01614,0 -3.66496,1.64882 -3.66496,3.66496l0 72.1618c0,2.01614 1.64882,3.66496 3.66496,3.66496l6.82441 0c2.01614,0 3.66496,-1.64882 3.66496,-3.66496l0 -72.1618c0,-2.01614 -1.64882,-3.66496 -3.66496,-3.66496z"/>
   <path id="_159955144" class="fil4" d="M39.3874 81.3366l-3.04843 -11.8583c0.994488,-0.255118 2.01969,-0.385039 3.04843,-0.385039 6.76063,0 12.2433,5.48268 12.2433,12.2433 0,6.76063 -5.48268,12.2433 -12.2433,12.2433 -6.76063,0 -12.2433,-5.48268 -12.2433,-12.2433l12.2433 0z"/>
   <path id="_160312312" class="fil3" d="M37.1563 79.2531l-12.2421 -0.124016c0.0106299,-1.02756 0.15,-2.05157 0.416929,-3.04488 1.11142,-4.15039 4.32402,-7.41732 8.45433,-8.60079l3.37087 11.7697z"/>
  </g>
 </g>
</svg>